<?xml version="1.0" encoding="UTF-8"?>
<!DOCTYPE svg PUBLIC "-//W3C//DTD SVG 1.1//EN" "http://www.w3.org/Graphics/SVG/1.1/DTD/svg11.dtd">
<!-- Creator: CorelDRAW 2021 (64-Bit) -->
<svg xmlns="http://www.w3.org/2000/svg" xml:space="preserve" width="1003px" height="242px" version="1.1" style="shape-rendering:geometricPrecision; text-rendering:geometricPrecision; image-rendering:optimizeQuality; fill-rule:evenodd; clip-rule:evenodd"
viewBox="0 0 84.12 20.27"
 xmlns:xlink="http://www.w3.org/1999/xlink"
 xmlns:xodm="http://www.corel.com/coreldraw/odm/2003">
 <defs>
  <style type="text/css">
   <![CDATA[
    .str2 {stroke:#014069;stroke-width:0.52;stroke-linecap:round;stroke-linejoin:round;stroke-miterlimit:22.9256}
    .str1 {stroke:#747475;stroke-width:0.2;stroke-linecap:round;stroke-linejoin:round;stroke-miterlimit:22.9256}
    .str0 {stroke:#ff9005;stroke-width:0.2;stroke-linecap:round;stroke-linejoin:round;stroke-miterlimit:22.9256}
    .fil0 {fill:#014069}
    .fil2 {fill:#747475}
    .fil1 {fill:#ff9005}
    .fil3 {fill:#014069;fill-rule:nonzero}
    .fil4 {fill:#ff9005;fill-rule:nonzero}
   ]]>
  </style>
    <clipPath id="id0">
     <path d="M32.06 11.85l14.96 0.14 0 6.22 -14.96 -0.13 0 -6.23z"/>
    </clipPath>
 </defs>
 <g id="Layer_x0020_1">
  <metadata id="CorelCorpID_0Corel-Layer"/>
  <path class="fil0" d="M39.3 0c-6.9,10.67 9.26,10.26 -5.06,20.26 10.62,-10.05 -6.92,-8.22 5.06,-20.26z"/>
  <path class="fil1 str0" d="M40.54 9.25c5.51,2.67 2.49,8.48 -4.49,10.92 5.07,-3.26 7.07,-6.85 4.49,-10.92z"/>
  <g id="_1950257654208">
   <g style="clip-path:url(#id0)">
    <image x="32.06" y="11.85" width="14.95" height="6.36" xlink:href="logo_Images\logo_ImgID1.png"/>
   </g>
  </g>
  <path class="fil2 str1" d="M34.75 14.05c2.85,0.73 10.83,2.81 8.94,0.23 4.91,3.77 -7.42,0.7 -8.94,-0.23z"/>
  <path class="fil2 str1" d="M34.65 12.4c2.85,0.72 10.83,2.81 8.94,0.23 4.92,3.77 -7.42,0.7 -8.94,-0.23z"/>
  <path class="fil3 str2" d="M3.07 10.92l0.29 -0.45 0.21 0 0.02 1.74 -0.27 0c-0.14,-0.5 -0.34,-0.88 -0.6,-1.12 -0.27,-0.25 -0.55,-0.38 -0.87,-0.38 -0.27,0 -0.49,0.08 -0.66,0.25 -0.17,0.16 -0.26,0.36 -0.26,0.59 0,0.13 0.04,0.26 0.1,0.37 0.07,0.12 0.18,0.21 0.33,0.29 0.15,0.08 0.41,0.17 0.78,0.26 0.43,0.1 0.73,0.19 0.9,0.28 0.26,0.13 0.46,0.3 0.6,0.52 0.13,0.22 0.19,0.48 0.19,0.79 0,0.47 -0.14,0.84 -0.42,1.12 -0.35,0.33 -0.78,0.5 -1.29,0.5 -0.46,0 -0.89,-0.18 -1.28,-0.55l-0.35 0.5 -0.23 0 0 -1.87 0.27 0c0.26,1.06 0.8,1.59 1.61,1.59 0.34,0 0.59,-0.09 0.78,-0.26 0.18,-0.17 0.27,-0.38 0.27,-0.64 0,-0.18 -0.04,-0.33 -0.12,-0.45 -0.08,-0.12 -0.2,-0.22 -0.37,-0.29 -0.1,-0.05 -0.33,-0.11 -0.7,-0.2 -0.49,-0.12 -0.84,-0.25 -1.06,-0.38 -0.21,-0.13 -0.36,-0.29 -0.46,-0.48 -0.1,-0.19 -0.15,-0.42 -0.15,-0.69 0,-0.46 0.14,-0.83 0.41,-1.12 0.28,-0.29 0.65,-0.44 1.11,-0.44 0.45,0 0.85,0.18 1.22,0.52zm2.39 -0.39l2.23 0 0 0.31 -0.3 0c-0.11,0 -0.19,0.02 -0.23,0.05 -0.04,0.03 -0.07,0.07 -0.07,0.12 0,0.06 0.02,0.12 0.06,0.2l0.94 1.81 0.66 -1.47c0.05,-0.12 0.08,-0.23 0.08,-0.34 0,-0.11 -0.04,-0.2 -0.11,-0.27 -0.07,-0.06 -0.18,-0.1 -0.32,-0.1l-0.14 0 0 -0.31 1.74 0 0 0.31c-0.2,0.01 -0.36,0.05 -0.49,0.14 -0.12,0.08 -0.22,0.22 -0.31,0.41l-0.9 2.01 0 1.58c0,0.1 0.02,0.17 0.07,0.21 0.04,0.05 0.11,0.07 0.21,0.07l0.46 0 0 0.31 -2.45 0 0 -0.31 0.46 0c0.1,0 0.18,-0.02 0.22,-0.07 0.04,-0.04 0.06,-0.11 0.06,-0.21l0 -1.41 -1.2 -2.34c-0.08,-0.15 -0.16,-0.25 -0.25,-0.31 -0.09,-0.05 -0.19,-0.08 -0.32,-0.08l-0.1 0 0 -0.31zm6.11 0l2.42 0c0.44,0 0.83,0.1 1.16,0.31 0.33,0.21 0.59,0.51 0.78,0.9 0.19,0.38 0.28,0.82 0.28,1.3 0,0.51 -0.09,0.94 -0.26,1.32 -0.17,0.37 -0.43,0.66 -0.77,0.88 -0.34,0.22 -0.71,0.33 -1.1,0.33l-2.51 0 0 -0.31 0.38 0c0.09,0 0.16,-0.03 0.2,-0.08 0.05,-0.06 0.07,-0.14 0.07,-0.24l0 -3.8c0,-0.11 -0.02,-0.18 -0.07,-0.23 -0.05,-0.04 -0.13,-0.07 -0.25,-0.07l-0.33 0 0 -0.31zm2.21 4.73c0.28,0 0.53,-0.08 0.74,-0.24 0.22,-0.15 0.38,-0.37 0.47,-0.64 0.1,-0.27 0.14,-0.69 0.14,-1.27 0,-0.6 -0.05,-1.06 -0.17,-1.38 -0.11,-0.32 -0.26,-0.55 -0.45,-0.68 -0.2,-0.14 -0.48,-0.21 -0.85,-0.21 -0.21,0 -0.34,0.02 -0.39,0.06 -0.05,0.04 -0.08,0.11 -0.08,0.21l0 3.83c0,0.11 0.02,0.19 0.06,0.24 0.05,0.05 0.11,0.08 0.2,0.08l0.33 0zm6.63 -4.86l1.68 4.53c0.05,0.13 0.1,0.22 0.16,0.26 0.05,0.05 0.13,0.07 0.22,0.07l0.17 0 0 0.31 -2.11 0 0 -0.31 0.2 0c0.15,0 0.26,-0.02 0.32,-0.06 0.06,-0.04 0.09,-0.09 0.09,-0.15 0,-0.05 -0.01,-0.11 -0.04,-0.18l-0.34 -0.93 -1.69 0 -0.16 0.43c-0.07,0.17 -0.1,0.31 -0.1,0.39 0,0.15 0.05,0.27 0.15,0.36 0.09,0.09 0.23,0.14 0.39,0.14l0.15 0 0 0.31 -1.71 0 0 -0.31 0.1 0c0.11,0 0.21,-0.04 0.29,-0.12 0.12,-0.1 0.21,-0.25 0.27,-0.42l1.62 -4.32 0.34 0zm-0.49 1.28l-0.72 1.92 1.43 0 -0.71 -1.92zm4.25 -1.15l1.39 0 2.44 3.46 0 -2.35c0,-0.24 -0.06,-0.42 -0.18,-0.56 -0.11,-0.14 -0.28,-0.22 -0.49,-0.24l0 -0.31 1.63 0 0 0.31c-0.23,0.03 -0.39,0.11 -0.49,0.23 -0.1,0.13 -0.15,0.32 -0.15,0.57l0 3.93 -0.35 0 -2.77 -3.97 0 2.75c0,0.32 0.06,0.55 0.19,0.69 0.13,0.15 0.29,0.22 0.48,0.22l0.08 0 0 0.31 -1.81 0 0 -0.31 0.12 0c0.18,0 0.33,-0.08 0.45,-0.24 0.12,-0.16 0.18,-0.36 0.18,-0.61l0 -3.25c-0.13,-0.21 -0.31,-0.32 -0.52,-0.32l-0.2 0 0 -0.31zm6.54 0l2.3 0 0 0.31 -0.42 0c-0.09,0 -0.15,0.02 -0.19,0.06 -0.04,0.04 -0.06,0.1 -0.06,0.18l0 3.91c0,0.09 0.02,0.16 0.06,0.19 0.06,0.05 0.14,0.08 0.24,0.08l0.37 0 0 0.31 -2.3 0 0 -0.31 0.35 0c0.12,0 0.21,-0.02 0.26,-0.07 0.05,-0.04 0.07,-0.11 0.07,-0.2l0 -3.87c0,-0.09 -0.02,-0.16 -0.07,-0.21 -0.04,-0.04 -0.11,-0.07 -0.21,-0.07l-0.4 0 0 -0.31z"/>
  <g>
   <path class="fil4" d="M51.14 10.48l0.26 0 0.12 2.16 -0.31 0c-0.17,-0.65 -0.4,-1.12 -0.69,-1.4 -0.29,-0.29 -0.62,-0.43 -0.97,-0.43 -0.28,0 -0.53,0.08 -0.75,0.24 -0.22,0.17 -0.4,0.43 -0.53,0.78 -0.12,0.35 -0.19,0.83 -0.19,1.44 0,0.68 0.06,1.19 0.16,1.53 0.11,0.33 0.27,0.58 0.48,0.74 0.22,0.16 0.47,0.24 0.75,0.24 0.36,0 0.65,-0.1 0.86,-0.32 0.21,-0.21 0.31,-0.49 0.31,-0.84l0 -0.5c0,-0.08 -0.02,-0.15 -0.07,-0.2 -0.04,-0.04 -0.11,-0.07 -0.2,-0.07l-0.56 0 0 -0.33 2.57 0 0 0.33 -0.33 0c-0.11,0 -0.19,0.03 -0.24,0.08 -0.05,0.04 -0.08,0.11 -0.08,0.19l0 2 -0.28 0 -0.45 -0.91c-0.2,0.31 -0.43,0.54 -0.7,0.69 -0.26,0.15 -0.58,0.22 -0.94,0.22 -0.48,0 -0.92,-0.12 -1.31,-0.35 -0.39,-0.24 -0.7,-0.55 -0.91,-0.96 -0.22,-0.41 -0.33,-0.89 -0.33,-1.46 0,-0.84 0.26,-1.53 0.76,-2.07 0.51,-0.53 1.13,-0.8 1.87,-0.8 0.27,0 0.51,0.04 0.72,0.12 0.22,0.08 0.44,0.22 0.68,0.42l0.3 -0.54zm3.79 0.13l2.77 0c0.45,0 0.81,0.06 1.1,0.18 0.28,0.12 0.49,0.28 0.63,0.48 0.14,0.2 0.21,0.43 0.21,0.67 0,0.4 -0.18,0.72 -0.53,0.96 -0.26,0.19 -0.67,0.31 -1.22,0.37 0.28,0.04 0.49,0.12 0.64,0.22 0.15,0.1 0.28,0.25 0.4,0.45 0.15,0.26 0.27,0.58 0.36,0.95 0.06,0.23 0.11,0.38 0.16,0.44 0.05,0.06 0.1,0.09 0.15,0.09 0.16,0 0.25,-0.21 0.29,-0.64l0.31 0c-0.02,0.45 -0.12,0.78 -0.3,0.98 -0.17,0.19 -0.42,0.29 -0.73,0.29 -0.23,0 -0.41,-0.05 -0.55,-0.14 -0.14,-0.09 -0.24,-0.23 -0.31,-0.42 -0.04,-0.1 -0.1,-0.35 -0.18,-0.73 -0.09,-0.46 -0.17,-0.76 -0.24,-0.92 -0.07,-0.15 -0.16,-0.27 -0.27,-0.34 -0.12,-0.08 -0.25,-0.12 -0.42,-0.12l-0.39 0 0 2c0,0.08 0.03,0.15 0.08,0.2 0.07,0.06 0.15,0.09 0.25,0.09l0.48 0 0 0.34 -2.69 0 0 -0.34 0.42 0c0.1,0 0.19,-0.03 0.24,-0.09 0.06,-0.05 0.08,-0.13 0.08,-0.23l0 -4.08c0,-0.11 -0.02,-0.19 -0.07,-0.24 -0.05,-0.06 -0.12,-0.08 -0.22,-0.08l-0.45 0 0 -0.34zm1.88 2.44l0.45 0c0.39,0 0.71,-0.1 0.94,-0.3 0.17,-0.16 0.25,-0.43 0.25,-0.8 0,-0.35 -0.08,-0.6 -0.25,-0.76 -0.17,-0.16 -0.46,-0.24 -0.88,-0.24 -0.23,0 -0.37,0.03 -0.42,0.08 -0.06,0.05 -0.09,0.16 -0.09,0.33l0 1.69zm8.65 -2.57c0.49,0 0.96,0.12 1.38,0.37 0.42,0.24 0.75,0.58 0.98,1 0.24,0.42 0.35,0.9 0.35,1.44 0,0.8 -0.26,1.48 -0.78,2.02 -0.51,0.54 -1.16,0.81 -1.93,0.81 -0.51,0 -0.97,-0.12 -1.37,-0.37 -0.41,-0.25 -0.72,-0.58 -0.96,-0.99 -0.23,-0.42 -0.35,-0.9 -0.35,-1.46 0,-0.82 0.26,-1.49 0.77,-2.02 0.51,-0.54 1.15,-0.8 1.91,-0.8zm0.01 0.35c-0.28,0 -0.53,0.08 -0.74,0.24 -0.21,0.16 -0.37,0.41 -0.5,0.77 -0.12,0.35 -0.18,0.84 -0.18,1.46 0,0.64 0.06,1.14 0.17,1.47 0.11,0.34 0.28,0.58 0.5,0.74 0.22,0.16 0.47,0.24 0.76,0.24 0.43,0 0.77,-0.18 1.03,-0.56 0.25,-0.37 0.38,-1.02 0.38,-1.94 0,-0.65 -0.06,-1.13 -0.17,-1.46 -0.11,-0.32 -0.27,-0.56 -0.49,-0.72 -0.21,-0.16 -0.47,-0.24 -0.76,-0.24zm5.24 -0.22l2.67 0 0 0.34 -0.54 0c-0.08,0 -0.14,0.02 -0.18,0.08 -0.04,0.05 -0.07,0.13 -0.07,0.24l0 2.98c0,0.42 0.11,0.75 0.33,0.97 0.22,0.23 0.53,0.34 0.91,0.34 0.29,0 0.54,-0.06 0.78,-0.19 0.17,-0.09 0.3,-0.24 0.41,-0.45 0.11,-0.22 0.16,-0.48 0.16,-0.8l0 -2.3c0,-0.29 -0.06,-0.51 -0.19,-0.65 -0.12,-0.15 -0.3,-0.22 -0.51,-0.22l-0.08 0 0 -0.34 2.02 0 0 0.34 -0.13 0c-0.21,0 -0.38,0.08 -0.49,0.24 -0.11,0.16 -0.16,0.36 -0.16,0.6l0 2.49c0,0.55 -0.18,1 -0.54,1.33 -0.37,0.34 -0.87,0.51 -1.51,0.51 -0.46,0 -0.85,-0.08 -1.19,-0.23 -0.34,-0.15 -0.58,-0.35 -0.72,-0.59 -0.14,-0.24 -0.22,-0.55 -0.22,-0.95l0 -3.03c0,-0.14 -0.02,-0.24 -0.07,-0.29 -0.06,-0.06 -0.15,-0.08 -0.29,-0.08l-0.39 0 0 -0.34zm8.29 0l3.11 0c0.52,0 0.94,0.14 1.27,0.43 0.31,0.29 0.47,0.64 0.47,1.05 0,0.32 -0.09,0.6 -0.27,0.83 -0.19,0.24 -0.44,0.41 -0.75,0.52 -0.31,0.11 -0.62,0.16 -0.92,0.16l-0.98 0 0 1.76c0,0.1 0.02,0.18 0.08,0.23 0.05,0.05 0.12,0.08 0.21,0.08l0.61 0 0 0.34 -2.83 0 0 -0.34 0.48 0c0.1,0 0.18,-0.03 0.24,-0.08 0.05,-0.05 0.08,-0.13 0.08,-0.23l0 -4.11c0,-0.1 -0.03,-0.17 -0.09,-0.22 -0.05,-0.06 -0.12,-0.08 -0.2,-0.08l-0.51 0 0 -0.34zm1.93 2.65l0.65 0c0.23,0 0.43,-0.05 0.61,-0.15 0.18,-0.09 0.3,-0.21 0.38,-0.36 0.07,-0.14 0.11,-0.37 0.11,-0.69 0,-0.43 -0.11,-0.74 -0.35,-0.92 -0.17,-0.13 -0.45,-0.19 -0.86,-0.19 -0.24,0 -0.39,0.02 -0.45,0.06 -0.06,0.04 -0.09,0.11 -0.09,0.2l0 2.05z"/>
   <path id="_1" class="fil4" d="M51.4 10.74l-0.26 0 0 -0.53 0.26 0 0.26 0.25 -0.26 0.28zm0 -0.53c0.14,0 0.26,0.12 0.26,0.27 0,0.14 -0.12,0.26 -0.26,0.26l0 -0.53zm-0.14 2.44l-0.12 -2.16 0.52 -0.03 0.13 2.16 -0.27 0.28 -0.26 -0.25zm0.53 -0.03c0,0.15 -0.11,0.27 -0.25,0.28 -0.15,0.01 -0.27,-0.1 -0.28,-0.25l0.53 -0.03zm-0.58 -0.25l0.31 0 0 0.53 -0.31 0 -0.25 -0.2 0.25 -0.33zm0 0.53c-0.15,0 -0.26,-0.12 -0.26,-0.26 0,-0.15 0.11,-0.27 0.26,-0.27l0 0.53zm-0.88 -1.48l0.37 -0.37 0 0 0.03 0.03 0.03 0.03 0.03 0.04 0.03 0.03 0.03 0.04 0.03 0.04 0.03 0.04 0.03 0.04 0.03 0.04 0.02 0.04 0.03 0.04 0.03 0.04 0.02 0.05 0.02 0.04 0.03 0.05 0.02 0.05 0.03 0.04 0.02 0.05 0.02 0.05 0.02 0.05 0.02 0.06 0.03 0.05 0.02 0.05 0.02 0.06 0.02 0.05 0.02 0.06 0.01 0.06 0.02 0.06 0.02 0.05 0.02 0.07 0.02 0.06 0.01 0.06 -0.5 0.13 -0.02 -0.05 -0.02 -0.06 -0.01 -0.06 -0.02 -0.05 -0.02 -0.05 -0.01 -0.06 -0.02 -0.05 -0.02 -0.05 -0.01 -0.04 -0.02 -0.05 -0.02 -0.05 -0.02 -0.04 -0.02 -0.05 -0.02 -0.04 -0.02 -0.04 -0.02 -0.04 -0.02 -0.04 -0.02 -0.04 -0.02 -0.04 -0.02 -0.03 -0.02 -0.04 -0.02 -0.03 -0.02 -0.03 -0.02 -0.04 -0.02 -0.03 -0.03 -0.03 -0.02 -0.02 -0.02 -0.03 -0.02 -0.03 -0.02 -0.02 -0.03 -0.03 -0.02 -0.02 0 0zm0 0c-0.1,-0.1 -0.1,-0.27 0,-0.37 0.1,-0.1 0.27,-0.1 0.37,0l-0.37 0.37zm-0.78 -0.35l0 -0.53 0 0 0.04 0 0.04 0.01 0.04 0 0.03 0 0.04 0.01 0.04 0 0.04 0.01 0.04 0.01 0.04 0 0.04 0.01 0.04 0.01 0.03 0.02 0.04 0.01 0.04 0.01 0.04 0.02 0.03 0.01 0.04 0.02 0.03 0.02 0.04 0.02 0.03 0.02 0.04 0.02 0.03 0.02 0.04 0.02 0.03 0.02 0.04 0.03 0.03 0.02 0.03 0.03 0.03 0.02 0.04 0.03 0.03 0.03 0.03 0.03 0.03 0.03 -0.37 0.37 -0.02 -0.02 -0.02 -0.02 -0.03 -0.02 -0.02 -0.02 -0.03 -0.02 -0.02 -0.02 -0.02 -0.02 -0.03 -0.02 -0.02 -0.01 -0.03 -0.02 -0.02 -0.01 -0.02 -0.02 -0.03 -0.01 -0.02 -0.01 -0.03 -0.02 -0.02 -0.01 -0.02 -0.01 -0.03 -0.01 -0.02 -0.01 -0.03 0 -0.02 -0.01 -0.03 -0.01 -0.02 -0.01 -0.03 0 -0.02 -0.01 -0.03 0 -0.02 0 -0.03 -0.01 -0.03 0 -0.02 0 -0.03 0 -0.02 0 0 0zm0 0c-0.15,0 -0.27,-0.12 -0.27,-0.26 0,-0.15 0.12,-0.27 0.27,-0.27l0 0.53zm-0.59 0.19l-0.32 -0.42 0 0 0.03 -0.02 0.02 -0.01 0.03 -0.02 0.02 -0.02 0.03 -0.01 0.03 -0.02 0.02 -0.01 0.03 -0.02 0.03 -0.01 0.02 -0.01 0.03 -0.02 0.03 -0.01 0.03 -0.01 0.02 -0.01 0.03 -0.01 0.03 -0.01 0.03 -0.01 0.03 -0.01 0.03 -0.01 0.03 0 0.03 -0.01 0.02 -0.01 0.03 0 0.03 -0.01 0.03 0 0.03 -0.01 0.03 0 0.03 0 0.03 0 0.03 -0.01 0.03 0 0.04 0 0 0.53 -0.03 0 -0.02 0 -0.02 0 -0.02 0 -0.02 0 -0.02 0 -0.02 0.01 -0.01 0 -0.02 0 -0.02 0.01 -0.02 0 -0.02 0 -0.02 0.01 -0.02 0 -0.02 0.01 -0.01 0.01 -0.02 0 -0.02 0.01 -0.02 0.01 -0.02 0 -0.01 0.01 -0.02 0.01 -0.02 0.01 -0.02 0.01 -0.01 0.01 -0.02 0.01 -0.02 0.01 -0.02 0.01 -0.01 0.01 -0.02 0.01 -0.02 0.01 -0.01 0.01 0 0zm0 0c-0.12,0.09 -0.29,0.07 -0.37,-0.05 -0.09,-0.12 -0.06,-0.28 0.05,-0.37l0.32 0.42zm-0.44 0.66l-0.49 -0.18 0 0 0.01 -0.04 0.01 -0.03 0.02 -0.04 0.01 -0.03 0.02 -0.03 0.01 -0.04 0.02 -0.03 0.01 -0.03 0.02 -0.04 0.02 -0.03 0.01 -0.03 0.02 -0.03 0.02 -0.03 0.02 -0.03 0.01 -0.03 0.02 -0.03 0.02 -0.02 0.02 -0.03 0.02 -0.03 0.02 -0.02 0.02 -0.03 0.03 -0.03 0.02 -0.02 0.02 -0.02 0.02 -0.03 0.03 -0.02 0.02 -0.02 0.02 -0.03 0.03 -0.02 0.02 -0.02 0.03 -0.02 0.02 -0.02 0.32 0.42 -0.02 0.02 -0.02 0.01 -0.01 0.01 -0.02 0.02 -0.01 0.01 -0.02 0.01 -0.01 0.02 -0.02 0.01 -0.01 0.02 -0.02 0.02 -0.01 0.01 -0.02 0.02 -0.01 0.02 -0.01 0.02 -0.02 0.02 -0.01 0.02 -0.02 0.02 -0.01 0.02 -0.01 0.02 -0.02 0.02 -0.01 0.03 -0.01 0.02 -0.01 0.02 -0.02 0.03 -0.01 0.02 -0.01 0.03 -0.01 0.03 -0.02 0.02 -0.01 0.03 -0.01 0.03 -0.01 0.03 -0.01 0.03 0 0zm0 0c-0.05,0.13 -0.2,0.2 -0.34,0.16 -0.13,-0.05 -0.2,-0.2 -0.15,-0.34l0.49 0.18zm-0.18 1.35l-0.52 0 0 0 0 -0.06 0 -0.06 0 -0.05 0 -0.06 0.01 -0.05 0 -0.06 0 -0.05 0 -0.06 0.01 -0.05 0 -0.05 0 -0.05 0.01 -0.05 0 -0.05 0.01 -0.05 0 -0.05 0.01 -0.05 0.01 -0.05 0 -0.04 0.01 -0.05 0.01 -0.05 0.01 -0.04 0.01 -0.05 0.01 -0.04 0 -0.04 0.01 -0.04 0.01 -0.04 0.02 -0.05 0.01 -0.04 0.01 -0.03 0.01 -0.04 0.01 -0.04 0.02 -0.04 0.49 0.18 -0.01 0.03 -0.01 0.03 -0.01 0.03 -0.01 0.03 -0.01 0.03 -0.01 0.04 -0.01 0.03 0 0.04 -0.01 0.03 -0.01 0.04 -0.01 0.04 0 0.04 -0.01 0.03 -0.01 0.05 0 0.04 -0.01 0.04 -0.01 0.04 0 0.04 0 0.05 -0.01 0.04 0 0.05 -0.01 0.05 0 0.04 0 0.05 -0.01 0.05 0 0.05 0 0.05 0 0.06 0 0.05 0 0.05 0 0.06 -0.01 0.05 0 0zm0 0c0,0.15 -0.11,0.26 -0.26,0.26 -0.14,0 -0.26,-0.11 -0.26,-0.26l0.52 0zm0.15 1.45l-0.5 0.15 0 0.01 -0.01 -0.04 -0.01 -0.04 -0.01 -0.04 -0.01 -0.03 -0.01 -0.04 -0.01 -0.04 -0.01 -0.05 -0.01 -0.04 0 -0.04 -0.01 -0.05 -0.01 -0.04 -0.01 -0.05 0 -0.04 -0.01 -0.05 0 -0.05 -0.01 -0.05 0 -0.05 -0.01 -0.05 0 -0.05 -0.01 -0.06 0 -0.05 0 -0.05 -0.01 -0.06 0 -0.06 0 -0.06 0 -0.06 -0.01 -0.05 0 -0.07 0 -0.06 0 -0.06 0 -0.06 0 -0.07 0.52 0 0.01 0.06 0 0.06 0 0.06 0 0.06 0 0.06 0 0.06 0 0.05 0 0.06 0.01 0.05 0 0.06 0 0.05 0.01 0.05 0 0.05 0 0.04 0.01 0.05 0 0.05 0.01 0.04 0 0.05 0.01 0.04 0 0.04 0.01 0.04 0.01 0.04 0 0.04 0.01 0.04 0.01 0.03 0 0.04 0.01 0.03 0.01 0.03 0.01 0.03 0 0.03 0.01 0.03 0.01 0.03 0 0zm0 0c0.04,0.14 -0.03,0.28 -0.17,0.33 -0.14,0.04 -0.29,-0.04 -0.33,-0.17l0.5 -0.16zm0.39 0.61l-0.32 0.42 0 0 -0.02 -0.02 -0.02 -0.02 -0.03 -0.02 -0.02 -0.02 -0.03 -0.02 -0.02 -0.02 -0.02 -0.03 -0.02 -0.02 -0.02 -0.02 -0.02 -0.03 -0.02 -0.02 -0.02 -0.03 -0.02 -0.02 -0.02 -0.03 -0.02 -0.03 -0.02 -0.02 -0.02 -0.03 -0.01 -0.03 -0.02 -0.03 -0.02 -0.03 -0.01 -0.03 -0.02 -0.03 -0.01 -0.03 -0.02 -0.03 -0.01 -0.03 -0.02 -0.03 -0.01 -0.04 -0.01 -0.03 -0.01 -0.03 -0.02 -0.04 -0.01 -0.03 -0.01 -0.04 0.5 -0.15 0.01 0.02 0.01 0.03 0.01 0.03 0.01 0.02 0.01 0.03 0.01 0.02 0.01 0.03 0.01 0.02 0.01 0.02 0.01 0.03 0.01 0.02 0.01 0.02 0.01 0.02 0.02 0.02 0.01 0.02 0.01 0.02 0.01 0.02 0.02 0.02 0.01 0.01 0.01 0.02 0.01 0.02 0.02 0.01 0.01 0.02 0.01 0.01 0.02 0.02 0.01 0.01 0.02 0.02 0.01 0.01 0.02 0.01 0.01 0.02 0.01 0.01 0.02 0.01 0 0zm0 0c0.12,0.09 0.14,0.25 0.05,0.37 -0.09,0.11 -0.25,0.14 -0.37,0.05l0.32 -0.42zm0.59 0.19l0 0.52 0 0 -0.04 0 -0.03 0 -0.03 0 -0.03 0 -0.03 0 -0.03 -0.01 -0.03 0 -0.03 0 -0.03 -0.01 -0.03 0 -0.03 -0.01 -0.03 -0.01 -0.03 0 -0.02 -0.01 -0.03 -0.01 -0.03 -0.01 -0.03 -0.01 -0.03 -0.01 -0.03 -0.01 -0.02 -0.01 -0.03 -0.01 -0.03 -0.02 -0.03 -0.01 -0.02 -0.01 -0.03 -0.02 -0.02 -0.01 -0.03 -0.02 -0.03 -0.01 -0.02 -0.02 -0.03 -0.02 -0.02 -0.01 -0.03 -0.02 0.32 -0.42 0.02 0.01 0.01 0.01 0.02 0.01 0.01 0.02 0.02 0.01 0.02 0.01 0.01 0 0.02 0.01 0.02 0.01 0.02 0.01 0.01 0.01 0.02 0.01 0.02 0 0.02 0.01 0.01 0.01 0.02 0 0.02 0.01 0.02 0 0.02 0.01 0.01 0 0.02 0.01 0.02 0 0.02 0.01 0.02 0 0.02 0 0.02 0 0.02 0.01 0.02 0 0.02 0 0.02 0 0.02 0 0.03 0 0 0zm0 0c0.14,0 0.26,0.12 0.26,0.26 0,0.15 -0.12,0.26 -0.26,0.26l0 -0.52zm0.67 -0.24l0.38 0.37 0 0 -0.03 0.02 -0.02 0.03 -0.03 0.02 -0.03 0.02 -0.02 0.02 -0.03 0.02 -0.03 0.02 -0.03 0.02 -0.03 0.02 -0.03 0.02 -0.03 0.02 -0.03 0.01 -0.03 0.02 -0.04 0.01 -0.03 0.02 -0.03 0.01 -0.03 0.01 -0.04 0.01 -0.03 0.01 -0.04 0.01 -0.03 0.01 -0.04 0.01 -0.03 0.01 -0.04 0 -0.04 0.01 -0.03 0 -0.04 0.01 -0.04 0 -0.04 0 -0.04 0 -0.03 0 -0.04 0 0 -0.52 0.03 0 0.02 0 0.03 0 0.03 0 0.03 -0.01 0.02 0 0.03 0 0.03 -0.01 0.02 0 0.02 -0.01 0.03 0 0.02 -0.01 0.02 0 0.03 -0.01 0.02 -0.01 0.02 0 0.02 -0.01 0.02 -0.01 0.02 -0.01 0.02 -0.01 0.01 -0.01 0.02 -0.01 0.02 -0.01 0.02 -0.01 0.01 -0.01 0.02 -0.01 0.02 -0.01 0.01 -0.01 0.02 -0.02 0.01 -0.01 0.02 -0.01 0.01 -0.02 0 0zm0 0c0.1,-0.1 0.27,-0.1 0.37,0 0.11,0.1 0.11,0.26 0.01,0.37l-0.38 -0.37zm0.24 -0.66l0.53 0 0 0 0 0.04 -0.01 0.03 0 0.04 0 0.04 0 0.03 -0.01 0.04 0 0.04 -0.01 0.03 0 0.04 -0.01 0.03 -0.01 0.04 -0.01 0.03 -0.01 0.04 -0.01 0.03 -0.01 0.03 -0.01 0.04 -0.01 0.03 -0.01 0.03 -0.02 0.03 -0.01 0.03 -0.02 0.03 -0.02 0.03 -0.01 0.03 -0.02 0.03 -0.02 0.03 -0.02 0.03 -0.02 0.03 -0.02 0.02 -0.02 0.03 -0.03 0.03 -0.02 0.02 -0.02 0.03 -0.38 -0.37 0.02 -0.02 0.01 -0.01 0.02 -0.02 0.01 -0.01 0.01 -0.02 0.01 -0.01 0.02 -0.02 0.01 -0.02 0.01 -0.02 0.01 -0.01 0.01 -0.02 0.01 -0.02 0.01 -0.02 0 -0.02 0.01 -0.02 0.01 -0.02 0.01 -0.02 0 -0.02 0.01 -0.02 0.01 -0.02 0 -0.02 0.01 -0.03 0 -0.02 0.01 -0.02 0 -0.03 0 -0.02 0.01 -0.03 0 -0.02 0 -0.03 0 -0.03 0 -0.02 0 -0.03 0 0zm0 0c0,-0.15 0.12,-0.26 0.26,-0.26 0.15,0 0.27,0.11 0.27,0.26l-0.53 0zm0.53 -0.5l0 0.5 -0.53 0 0 -0.5 0 0 0.53 0zm-0.53 0c0,-0.14 0.12,-0.26 0.26,-0.26 0.15,0 0.27,0.12 0.27,0.26l-0.53 0zm0.01 -0.01l0.37 -0.38 0 0.01 0.01 0.01 0.01 0.01 0.01 0.01 0.01 0.01 0 0.01 0.01 0.01 0.01 0.01 0.01 0.01 0 0.02 0.01 0.01 0.01 0.01 0 0.01 0.01 0.01 0 0.02 0.01 0.01 0 0.01 0.01 0.01 0 0.02 0.01 0.01 0 0.01 0 0.02 0 0.01 0.01 0.01 0 0.01 0 0.02 0 0.01 0 0.01 0 0.01 0 0.02 0.01 0.01 0 0.01 0 0.01 -0.53 0 0 0 0 0 0 -0.01 0 0 0 0 0 0 0 -0.01 0 0 0 0 0 0 0 0 0 -0.01 0 0 0 0 0 0 0 0 0 0 0 0 0 0 0 0 0 0 0 0.01 0 0 0 0 0 0 0 0 0 0 0 0 0.01 0.01 0 0 0 0 0 0 0 0zm0 0c-0.1,-0.1 -0.1,-0.27 0,-0.37 0.1,-0.11 0.27,-0.11 0.37,0l-0.37 0.37zm-0.02 0.01l0 -0.53 0 0 0.01 0 0.02 0 0.01 0 0.01 0 0.01 0.01 0.01 0 0.02 0 0.01 0 0.01 0 0.01 0 0.02 0.01 0.01 0 0.01 0 0.01 0 0.02 0.01 0.01 0 0.01 0.01 0.02 0 0.01 0.01 0.01 0 0.01 0.01 0.01 0 0.02 0.01 0.01 0.01 0.01 0 0.01 0.01 0.01 0.01 0.01 0.01 0.02 0.01 0 0 0.01 0.01 0.02 0.01 -0.37 0.38 0 0 0.01 0 0 0 0 0 0 0.01 0 0 0 0 0 0 0 0 0 0 0 0 0.01 0 0 0 0 0 0 0 0 0 -0.01 0 0.01 0 -0.01 0 0 0 0 0 0 0 0 0 -0.01 0 0 0 0 0 0 0 -0.01 0 0 0 0 0 -0.01 0 0 0 0 0zm0 0c-0.14,0 -0.26,-0.12 -0.26,-0.27 0,-0.14 0.12,-0.26 0.26,-0.26l0 0.53zm-0.56 -0.53l0.56 0 0 0.53 -0.56 0 -0.26 -0.27 0.26 -0.26zm0 0.53c-0.14,0 -0.26,-0.12 -0.26,-0.27 0,-0.14 0.12,-0.26 0.26,-0.26l0 0.53zm0.27 -0.6l0 0.33 -0.53 0 0 -0.33 0.26 -0.26 0.27 0.26zm-0.53 0c0,-0.15 0.12,-0.26 0.26,-0.26 0.15,0 0.27,0.11 0.27,0.26l-0.53 0zm2.83 0.26l-2.57 0 0 -0.52 2.57 0 0.26 0.26 -0.26 0.26zm0 -0.52c0.14,0 0.26,0.11 0.26,0.26 0,0.14 -0.12,0.26 -0.26,0.26l0 -0.52zm-0.27 0.59l0 -0.33 0.53 0 0 0.33 -0.26 0.27 -0.27 -0.27zm0.53 0c0,0.15 -0.12,0.27 -0.26,0.27 -0.15,0 -0.27,-0.12 -0.27,-0.27l0.53 0zm-0.59 -0.26l0.33 0 0 0.53 -0.33 0 0 0 0 -0.53zm0 0.53c-0.14,0 -0.26,-0.12 -0.26,-0.27 0,-0.14 0.12,-0.26 0.26,-0.26l0 0.53zm-0.07 0l-0.35 -0.39 0 0 0.01 -0.01 0.01 -0.01 0.01 -0.01 0.02 -0.01 0.01 0 0.01 -0.01 0.02 -0.01 0.01 -0.01 0.01 0 0.02 -0.01 0.01 -0.01 0.01 0 0.01 -0.01 0.02 0 0.01 -0.01 0.02 0 0.01 0 0.01 -0.01 0.02 0 0.01 0 0.01 -0.01 0.02 0 0.01 0 0.01 0 0.02 0 0.01 0 0.01 -0.01 0.02 0 0.01 0 0.02 0 0.01 0 0.01 0 0 0.53 0 0 -0.01 0 -0.01 0 0 0 -0.01 0 0 0 -0.01 0 0 0 -0.01 0 0 0 -0.01 0 0 0 0 0 -0.01 0 0 0 0 0 0 0 0 0 -0.01 0.01 0 0 0 0 0 0 0 0 0.01 0 -0.01 0 0 0 0.01 -0.01 0 0 0 0 0 0 0 0 0 0 0 0zm0 0c-0.1,0.1 -0.27,0.09 -0.37,-0.02 -0.09,-0.1 -0.09,-0.27 0.02,-0.37l0.35 0.39zm0.01 0l-0.52 0 0 0 0 -0.01 0 -0.01 0 -0.01 0 -0.02 0 -0.01 0 -0.01 0 -0.02 0.01 -0.01 0 -0.01 0 -0.02 0 -0.01 0.01 -0.01 0 -0.02 0.01 -0.01 0 -0.01 0 -0.01 0.01 -0.02 0.01 -0.01 0 -0.01 0.01 -0.01 0 -0.02 0.01 -0.01 0.01 -0.01 0.01 -0.01 0 -0.01 0.01 -0.01 0.01 -0.02 0.01 -0.01 0.01 -0.01 0.01 -0.01 0.01 -0.01 0.01 -0.01 0.35 0.39 0.01 0 0 0 0 0 0 -0.01 0 0.01 0 -0.01 0 0 0 0 0 0 0 0 0 0 0 0 0 0 0 0 0 0 0 -0.01 0 0 0 0.01 0 0 0 -0.01 0 0.01 0 0 0 0 0 0 0 0 0 0 0 0 0 0 0 0.01 0 0 0 0 0 0 0 0zm0 0c0,0.15 -0.12,0.27 -0.26,0.27 -0.15,0 -0.26,-0.12 -0.26,-0.27l0.52 0zm-0.52 2l0 -2 0.52 0 0 2 -0.26 0.26 -0.26 -0.26zm0.52 0c0,0.14 -0.12,0.26 -0.26,0.26 -0.15,0 -0.26,-0.12 -0.26,-0.26l0.52 0zm-0.54 -0.26l0.28 0 0 0.52 -0.28 0 -0.23 -0.15 0.23 -0.37zm0 0.52c-0.14,0 -0.26,-0.12 -0.26,-0.26 0,-0.15 0.12,-0.26 0.26,-0.26l0 0.52zm-0.21 -1.29l0.45 0.91 -0.47 0.23 -0.45 -0.91 0.01 -0.25 0.46 0.02zm-0.47 0.23c-0.06,-0.13 -0.01,-0.29 0.12,-0.35 0.13,-0.06 0.29,-0.01 0.35,0.12l-0.47 0.23zm-0.34 0.81l-0.25 -0.46 0 0 0.02 -0.01 0.02 -0.01 0.02 -0.02 0.02 -0.01 0.02 -0.01 0.02 -0.02 0.02 -0.01 0.02 -0.02 0.02 -0.01 0.02 -0.02 0.02 -0.01 0.02 -0.02 0.02 -0.02 0.02 -0.01 0.02 -0.02 0.01 -0.02 0.02 -0.02 0.02 -0.02 0.02 -0.02 0.02 -0.02 0.02 -0.02 0.02 -0.02 0.01 -0.02 0.02 -0.03 0.02 -0.02 0.02 -0.02 0.02 -0.03 0.01 -0.02 0.02 -0.03 0.02 -0.02 0.02 -0.03 0.01 -0.02 0.45 0.28 -0.02 0.03 -0.03 0.03 -0.02 0.03 -0.02 0.03 -0.02 0.03 -0.02 0.03 -0.02 0.03 -0.03 0.03 -0.02 0.03 -0.02 0.03 -0.03 0.02 -0.02 0.03 -0.02 0.03 -0.03 0.02 -0.02 0.03 -0.03 0.02 -0.02 0.03 -0.03 0.02 -0.02 0.02 -0.03 0.03 -0.02 0.02 -0.03 0.02 -0.03 0.02 -0.02 0.02 -0.03 0.02 -0.03 0.02 -0.03 0.02 -0.03 0.02 -0.02 0.02 -0.03 0.02 -0.03 0.01 -0.03 0.02 0 0zm0 0c-0.13,0.07 -0.29,0.02 -0.36,-0.1 -0.07,-0.13 -0.02,-0.29 0.11,-0.36l0.25 0.46zm-1.07 0.25l0 -0.52 0 0 0.03 0 0.03 0 0.03 0 0.03 -0.01 0.03 0 0.03 0 0.03 0 0.03 -0.01 0.02 0 0.03 0 0.03 -0.01 0.02 0 0.03 -0.01 0.03 0 0.02 -0.01 0.03 0 0.02 -0.01 0.03 0 0.02 -0.01 0.03 -0.01 0.02 -0.01 0.03 0 0.02 -0.01 0.02 -0.01 0.03 -0.01 0.02 -0.01 0.02 -0.01 0.02 -0.01 0.02 -0.01 0.03 -0.01 0.02 -0.01 0.02 -0.01 0.25 0.46 -0.03 0.02 -0.03 0.01 -0.03 0.02 -0.03 0.01 -0.03 0.01 -0.03 0.02 -0.03 0.01 -0.03 0.01 -0.03 0.01 -0.04 0.01 -0.03 0.01 -0.03 0.01 -0.03 0.01 -0.04 0.01 -0.03 0.01 -0.03 0.01 -0.04 0.01 -0.03 0 -0.03 0.01 -0.04 0.01 -0.03 0 -0.04 0.01 -0.03 0 -0.04 0.01 -0.03 0 -0.04 0 -0.04 0.01 -0.03 0 -0.04 0 -0.03 0 -0.04 0 -0.04 0 0 0zm0 0c-0.14,0 -0.26,-0.12 -0.26,-0.26 0,-0.15 0.12,-0.26 0.26,-0.26l0 0.52zm-1.44 -0.39l0.26 -0.45 0 0 0.04 0.02 0.03 0.02 0.03 0.02 0.04 0.02 0.03 0.01 0.04 0.02 0.03 0.02 0.04 0.01 0.03 0.01 0.04 0.02 0.03 0.01 0.04 0.01 0.03 0.02 0.04 0.01 0.03 0.01 0.04 0.01 0.04 0.01 0.04 0.01 0.03 0 0.04 0.01 0.04 0.01 0.04 0.01 0.03 0 0.04 0.01 0.04 0 0.04 0.01 0.04 0 0.04 0 0.04 0 0.04 0.01 0.04 0 0.04 0 0 0.52 -0.05 0 -0.05 0 -0.04 0 -0.05 0 -0.05 -0.01 -0.05 0 -0.05 -0.01 -0.04 0 -0.05 -0.01 -0.05 -0.01 -0.04 0 -0.05 -0.01 -0.05 -0.01 -0.04 -0.01 -0.05 -0.01 -0.04 -0.02 -0.05 -0.01 -0.04 -0.01 -0.05 -0.02 -0.04 -0.01 -0.05 -0.02 -0.04 -0.01 -0.04 -0.02 -0.05 -0.02 -0.04 -0.01 -0.04 -0.02 -0.05 -0.02 -0.04 -0.03 -0.04 -0.02 -0.04 -0.02 -0.04 -0.02 -0.04 -0.03 0 0zm0 0c-0.13,-0.07 -0.17,-0.23 -0.1,-0.35 0.08,-0.13 0.24,-0.17 0.36,-0.1l-0.26 0.45zm-1.02 -1.06l0.47 -0.24 0 0 0.02 0.03 0.02 0.03 0.01 0.04 0.02 0.03 0.02 0.03 0.03 0.03 0.02 0.03 0.02 0.04 0.02 0.03 0.02 0.03 0.02 0.02 0.03 0.03 0.02 0.03 0.03 0.03 0.02 0.03 0.03 0.02 0.02 0.03 0.03 0.03 0.02 0.02 0.03 0.03 0.03 0.02 0.03 0.02 0.02 0.03 0.03 0.02 0.03 0.02 0.03 0.03 0.03 0.02 0.03 0.02 0.04 0.02 0.03 0.02 0.03 0.02 0.03 0.02 -0.26 0.45 -0.04 -0.02 -0.04 -0.03 -0.04 -0.02 -0.04 -0.03 -0.04 -0.02 -0.04 -0.03 -0.04 -0.03 -0.03 -0.03 -0.04 -0.03 -0.03 -0.03 -0.04 -0.03 -0.03 -0.03 -0.04 -0.03 -0.03 -0.03 -0.03 -0.03 -0.03 -0.04 -0.04 -0.03 -0.03 -0.03 -0.03 -0.04 -0.03 -0.03 -0.02 -0.04 -0.03 -0.03 -0.03 -0.04 -0.03 -0.04 -0.03 -0.04 -0.02 -0.04 -0.03 -0.03 -0.02 -0.04 -0.03 -0.04 -0.02 -0.04 -0.02 -0.05 -0.03 -0.04 0 0zm0 0c-0.06,-0.13 -0.01,-0.28 0.11,-0.35 0.13,-0.07 0.29,-0.02 0.36,0.11l-0.47 0.24zm-0.35 -1.58l0.53 0 0 0 0 0.05 0 0.05 0 0.05 0 0.04 0 0.05 0.01 0.05 0 0.05 0 0.04 0.01 0.05 0 0.04 0.01 0.05 0.01 0.04 0 0.05 0.01 0.04 0.01 0.04 0.01 0.04 0.01 0.04 0.01 0.05 0.01 0.04 0.01 0.04 0.01 0.04 0.02 0.03 0.01 0.04 0.01 0.04 0.02 0.04 0.01 0.04 0.01 0.03 0.02 0.04 0.02 0.03 0.01 0.04 0.02 0.03 0.02 0.04 -0.47 0.24 -0.02 -0.04 -0.02 -0.04 -0.02 -0.05 -0.02 -0.04 -0.02 -0.04 -0.02 -0.05 -0.01 -0.05 -0.02 -0.04 -0.02 -0.05 -0.01 -0.04 -0.02 -0.05 -0.01 -0.05 -0.02 -0.05 -0.01 -0.05 -0.01 -0.04 -0.01 -0.05 -0.01 -0.05 -0.01 -0.05 -0.01 -0.05 -0.01 -0.06 -0.01 -0.05 0 -0.05 -0.01 -0.05 -0.01 -0.05 0 -0.06 -0.01 -0.05 0 -0.06 0 -0.05 -0.01 -0.06 0 -0.05 0 -0.06 0 -0.05 0 0zm0 0c0,-0.15 0.12,-0.26 0.26,-0.26 0.15,0 0.27,0.11 0.27,0.26l-0.53 0zm0.83 -2.25l0.38 0.36 0 0 -0.04 0.05 -0.04 0.05 -0.04 0.04 -0.04 0.05 -0.03 0.05 -0.04 0.05 -0.03 0.05 -0.04 0.05 -0.03 0.05 -0.03 0.06 -0.03 0.05 -0.02 0.06 -0.03 0.05 -0.02 0.06 -0.03 0.05 -0.02 0.06 -0.02 0.06 -0.02 0.06 -0.02 0.06 -0.02 0.06 -0.01 0.07 -0.02 0.06 -0.01 0.06 -0.01 0.07 -0.01 0.07 -0.01 0.06 -0.01 0.07 0 0.07 -0.01 0.07 0 0.07 0 0.07 0 0.08 -0.53 0 0 -0.09 0 -0.08 0.01 -0.08 0 -0.08 0.01 -0.08 0.01 -0.08 0.01 -0.08 0.01 -0.08 0.02 -0.07 0.01 -0.08 0.02 -0.07 0.02 -0.08 0.02 -0.07 0.02 -0.08 0.02 -0.07 0.03 -0.07 0.02 -0.07 0.03 -0.07 0.03 -0.07 0.03 -0.06 0.04 -0.07 0.03 -0.07 0.04 -0.06 0.04 -0.06 0.04 -0.07 0.04 -0.06 0.04 -0.06 0.05 -0.06 0.04 -0.06 0.05 -0.06 0.05 -0.05 0.05 -0.06 0 0zm0 0c0.1,-0.1 0.27,-0.11 0.37,-0.01 0.11,0.1 0.11,0.27 0.01,0.37l-0.38 -0.36zm2.06 -0.89l0 0.53 0 0 -0.07 0 -0.06 0 -0.06 0.01 -0.06 0 -0.06 0.01 -0.06 0 -0.06 0.01 -0.05 0.01 -0.06 0.02 -0.06 0.01 -0.05 0.01 -0.05 0.02 -0.06 0.02 -0.05 0.02 -0.05 0.02 -0.06 0.02 -0.05 0.02 -0.05 0.03 -0.05 0.02 -0.05 0.03 -0.05 0.03 -0.05 0.03 -0.04 0.03 -0.05 0.03 -0.05 0.04 -0.05 0.03 -0.04 0.04 -0.05 0.04 -0.04 0.04 -0.05 0.04 -0.04 0.05 -0.05 0.04 -0.38 -0.36 0.06 -0.05 0.05 -0.05 0.05 -0.05 0.06 -0.05 0.05 -0.05 0.06 -0.05 0.06 -0.04 0.05 -0.04 0.06 -0.04 0.06 -0.04 0.06 -0.04 0.06 -0.04 0.06 -0.03 0.07 -0.03 0.06 -0.03 0.07 -0.03 0.06 -0.03 0.07 -0.02 0.06 -0.03 0.07 -0.02 0.07 -0.02 0.07 -0.02 0.07 -0.02 0.07 -0.01 0.07 -0.01 0.07 -0.01 0.07 -0.01 0.07 -0.01 0.07 -0.01 0.08 0 0.07 0 0.08 -0.01 0 0zm0 0c0.14,0 0.26,0.12 0.26,0.27 0,0.14 -0.12,0.26 -0.26,0.26l0 -0.53zm0.82 0.14l-0.19 0.49 0 0 -0.02 0 -0.01 -0.01 -0.02 -0.01 -0.02 0 -0.02 -0.01 -0.01 0 -0.02 -0.01 -0.02 0 -0.02 -0.01 -0.02 0 -0.01 -0.01 -0.02 0 -0.02 0 -0.02 -0.01 -0.02 0 -0.02 0 -0.02 -0.01 -0.02 0 -0.02 0 -0.02 -0.01 -0.02 0 -0.02 0 -0.02 0 -0.03 0 -0.02 -0.01 -0.02 0 -0.02 0 -0.02 0 -0.03 0 -0.02 0 -0.02 0 -0.02 0 0 -0.53 0.02 0 0.03 0.01 0.03 0 0.03 0 0.02 0 0.03 0 0.03 0 0.02 0 0.03 0.01 0.03 0 0.02 0 0.03 0 0.03 0.01 0.02 0 0.03 0 0.02 0.01 0.03 0 0.03 0.01 0.02 0 0.03 0.01 0.02 0 0.03 0.01 0.02 0 0.03 0.01 0.02 0.01 0.02 0 0.03 0.01 0.02 0.01 0.03 0.01 0.02 0.01 0.02 0 0.03 0.01 0 0zm0 0c0.13,0.05 0.2,0.21 0.15,0.34 -0.05,0.14 -0.2,0.2 -0.34,0.15l0.19 -0.49zm0.35 0.55l0.46 0.25 -0.4 0.07 -0.02 -0.02 -0.02 -0.01 -0.02 -0.02 -0.02 -0.02 -0.02 -0.01 -0.02 -0.02 -0.02 -0.01 -0.02 -0.02 -0.02 -0.01 -0.02 -0.02 -0.02 -0.01 -0.02 -0.01 -0.02 -0.02 -0.02 -0.01 -0.02 -0.01 -0.02 -0.01 -0.02 -0.02 -0.01 -0.01 -0.02 -0.01 -0.02 -0.01 -0.02 -0.01 -0.02 -0.01 -0.02 -0.01 -0.01 -0.01 -0.02 -0.01 -0.02 0 -0.02 -0.01 -0.01 -0.01 -0.02 -0.01 -0.02 0 -0.01 -0.01 -0.02 -0.01 0.19 -0.49 0.02 0.01 0.02 0.01 0.03 0.01 0.02 0.01 0.02 0.01 0.03 0.01 0.02 0.01 0.02 0.02 0.03 0.01 0.02 0.01 0.02 0.01 0.03 0.02 0.02 0.01 0.02 0.01 0.03 0.02 0.02 0.01 0.02 0.02 0.03 0.01 0.02 0.02 0.03 0.01 0.02 0.02 0.02 0.02 0.03 0.01 0.02 0.02 0.02 0.02 0.03 0.02 0.02 0.02 0.02 0.01 0.03 0.02 0.02 0.02 0.03 0.02 0.02 0.02 -0.4 0.08zm0.4 -0.08c0.11,0.1 0.12,0.26 0.03,0.37 -0.09,0.11 -0.26,0.13 -0.37,0.03l0.34 -0.4zm0.36 -0.22l-0.3 0.55 -0.46 -0.25 0.3 -0.55 0.23 -0.14 0.23 0.39zm-0.46 -0.25c0.07,-0.13 0.23,-0.17 0.36,-0.1 0.13,0.07 0.17,0.23 0.1,0.35l-0.46 -0.25zm6.79 0.52l-2.77 0 0 -0.52 2.77 0 0 0 0 0.52zm0 -0.52c0.14,0 0.26,0.12 0.26,0.26 0,0.15 -0.12,0.26 -0.26,0.26l0 -0.52zm1.2 0.2l-0.2 0.48 -0.01 0 -0.02 -0.01 -0.02 -0.01 -0.02 -0.01 -0.03 -0.01 -0.02 0 -0.03 -0.01 -0.02 -0.01 -0.03 -0.01 -0.03 0 -0.03 -0.01 -0.02 -0.01 -0.03 0 -0.03 -0.01 -0.03 -0.01 -0.03 0 -0.03 -0.01 -0.03 0 -0.04 -0.01 -0.03 0 -0.03 0 -0.04 -0.01 -0.03 0 -0.03 0 -0.04 -0.01 -0.04 0 -0.03 0 -0.04 0 -0.04 0 -0.04 -0.01 -0.03 0 -0.04 0 -0.04 0 0 -0.52 0.04 0 0.05 0 0.04 0 0.04 0 0.04 0 0.05 0.01 0.04 0 0.04 0 0.04 0 0.04 0.01 0.04 0 0.04 0.01 0.04 0 0.04 0.01 0.03 0 0.04 0.01 0.04 0 0.03 0.01 0.04 0.01 0.04 0 0.03 0.01 0.04 0.01 0.03 0.01 0.04 0.01 0.03 0.01 0.03 0.01 0.04 0.01 0.03 0.01 0.03 0.01 0.03 0.01 0.04 0.01 0.03 0.02 0 0zm0 0c0.13,0.05 0.19,0.21 0.14,0.34 -0.06,0.13 -0.21,0.2 -0.35,0.14l0.21 -0.48zm0.74 0.57l-0.43 0.3 0 0 -0.01 -0.02 -0.01 -0.01 -0.01 -0.02 -0.01 -0.01 -0.01 -0.01 -0.01 -0.02 -0.02 -0.01 -0.01 -0.01 -0.01 -0.02 -0.01 -0.01 -0.02 -0.01 -0.01 -0.02 -0.02 -0.01 -0.01 -0.01 -0.02 -0.01 -0.01 -0.02 -0.02 -0.01 -0.01 -0.01 -0.02 -0.01 -0.02 -0.01 -0.02 -0.01 -0.02 -0.02 -0.01 -0.01 -0.02 -0.01 -0.02 -0.01 -0.02 -0.01 -0.02 -0.01 -0.02 -0.01 -0.03 -0.01 -0.02 -0.01 -0.02 -0.01 -0.02 -0.01 0.2 -0.48 0.03 0.01 0.02 0.01 0.03 0.01 0.03 0.02 0.03 0.01 0.03 0.02 0.03 0.01 0.02 0.02 0.03 0.01 0.03 0.02 0.02 0.01 0.03 0.02 0.02 0.02 0.03 0.01 0.02 0.02 0.03 0.02 0.02 0.02 0.02 0.01 0.02 0.02 0.03 0.02 0.02 0.02 0.02 0.02 0.02 0.02 0.02 0.02 0.02 0.02 0.02 0.02 0.02 0.03 0.02 0.02 0.01 0.02 0.02 0.02 0.02 0.03 0.01 0.02 0 0zm0 0c0.09,0.12 0.06,0.28 -0.06,0.36 -0.12,0.09 -0.29,0.06 -0.37,-0.06l0.43 -0.3zm0.26 0.82l-0.53 0 0 0 0 -0.02 0 -0.01 0 -0.02 0 -0.02 0 -0.02 0 -0.02 0 -0.01 -0.01 -0.02 0 -0.02 0 -0.01 -0.01 -0.02 0 -0.02 0 -0.01 -0.01 -0.02 0 -0.02 -0.01 -0.01 0 -0.02 -0.01 -0.02 0 -0.01 -0.01 -0.02 -0.01 -0.01 0 -0.02 -0.01 -0.02 -0.01 -0.01 0 -0.02 -0.01 -0.01 -0.01 -0.02 -0.01 -0.01 -0.01 -0.02 -0.01 -0.01 -0.01 -0.02 -0.01 -0.01 0.43 -0.3 0.02 0.02 0.02 0.03 0.01 0.02 0.01 0.02 0.02 0.03 0.01 0.02 0.01 0.03 0.01 0.02 0.02 0.02 0.01 0.03 0.01 0.02 0.01 0.03 0.01 0.02 0.01 0.03 0.01 0.03 0 0.02 0.01 0.03 0.01 0.02 0.01 0.03 0 0.03 0.01 0.02 0 0.03 0.01 0.03 0 0.02 0.01 0.03 0 0.03 0 0.03 0 0.02 0.01 0.03 0 0.03 0 0.02 0 0.03 0 0zm0 0c0,0.15 -0.12,0.26 -0.26,0.26 -0.15,0 -0.27,-0.11 -0.27,-0.26l0.53 0zm-0.64 1.18l-0.3 -0.43 0 0 0.03 -0.02 0.03 -0.02 0.02 -0.02 0.02 -0.02 0.03 -0.02 0.02 -0.02 0.02 -0.02 0.02 -0.02 0.02 -0.02 0.02 -0.02 0.01 -0.03 0.02 -0.02 0.01 -0.02 0.02 -0.02 0.01 -0.02 0.02 -0.03 0.01 -0.02 0.01 -0.02 0.01 -0.02 0.01 -0.03 0.01 -0.02 0 -0.03 0.01 -0.02 0.01 -0.03 0 -0.02 0.01 -0.03 0 -0.03 0.01 -0.02 0 -0.03 0 -0.03 0 -0.03 0 -0.03 0.53 0 0 0.05 0 0.04 -0.01 0.04 0 0.05 -0.01 0.04 0 0.04 -0.01 0.05 -0.01 0.04 -0.01 0.04 -0.01 0.04 -0.02 0.04 -0.01 0.04 -0.02 0.04 -0.02 0.04 -0.01 0.04 -0.02 0.04 -0.03 0.03 -0.02 0.04 -0.02 0.03 -0.03 0.04 -0.02 0.03 -0.03 0.04 -0.03 0.03 -0.03 0.03 -0.03 0.04 -0.03 0.03 -0.03 0.03 -0.03 0.03 -0.04 0.03 -0.03 0.02 -0.04 0.03 -0.04 0.03 0 0zm0 0c-0.11,0.08 -0.28,0.05 -0.36,-0.06 -0.08,-0.12 -0.06,-0.29 0.06,-0.37l0.3 0.43zm-1.33 -0.11l-0.08 0.52 0.01 -0.52 0.05 -0.01 0.05 0 0.05 -0.01 0.04 -0.01 0.05 0 0.04 -0.01 0.05 -0.01 0.04 0 0.04 -0.01 0.04 -0.01 0.04 -0.01 0.04 -0.01 0.04 -0.01 0.03 -0.01 0.04 -0.01 0.03 -0.01 0.04 -0.01 0.03 -0.01 0.03 -0.01 0.03 -0.01 0.03 -0.01 0.03 -0.01 0.03 -0.01 0.03 -0.02 0.03 -0.01 0.02 -0.01 0.03 -0.01 0.02 -0.02 0.02 -0.01 0.02 -0.01 0.02 -0.02 0.02 -0.01 0.3 0.43 -0.03 0.02 -0.03 0.02 -0.03 0.02 -0.03 0.02 -0.04 0.02 -0.03 0.02 -0.04 0.01 -0.03 0.02 -0.04 0.02 -0.04 0.01 -0.04 0.02 -0.03 0.01 -0.04 0.02 -0.04 0.01 -0.04 0.01 -0.05 0.02 -0.04 0.01 -0.04 0.01 -0.05 0.01 -0.04 0.01 -0.05 0.01 -0.04 0.01 -0.05 0.01 -0.05 0.01 -0.04 0.01 -0.05 0.01 -0.05 0.01 -0.05 0 -0.06 0.01 -0.05 0.01 -0.05 0 -0.05 0.01 0.01 -0.52zm-0.01 0.52c-0.15,0.01 -0.28,-0.09 -0.29,-0.24 -0.02,-0.14 0.09,-0.27 0.23,-0.28l0.06 0.52zm0.76 -0.26l-0.3 0.44 0 0 -0.01 -0.01 -0.01 -0.01 -0.01 0 -0.01 -0.01 -0.01 -0.01 -0.01 0 -0.02 -0.01 -0.01 -0.01 -0.01 0 -0.02 -0.01 -0.01 0 -0.01 -0.01 -0.02 -0.01 -0.02 0 -0.01 -0.01 -0.02 0 -0.02 -0.01 -0.01 -0.01 -0.02 0 -0.02 -0.01 -0.02 0 -0.02 -0.01 -0.02 0 -0.02 -0.01 -0.02 0 -0.02 -0.01 -0.02 0 -0.02 -0.01 -0.02 0 -0.03 -0.01 -0.02 0 -0.02 0 0.08 -0.52 0.03 0 0.03 0.01 0.03 0 0.02 0.01 0.03 0.01 0.03 0 0.02 0.01 0.03 0 0.02 0.01 0.03 0.01 0.02 0 0.03 0.01 0.02 0.01 0.03 0.01 0.02 0 0.02 0.01 0.03 0.01 0.02 0.01 0.02 0.01 0.02 0 0.03 0.01 0.02 0.01 0.02 0.01 0.02 0.01 0.02 0.01 0.02 0.01 0.02 0.01 0.02 0.02 0.02 0.01 0.02 0.01 0.02 0.01 0.02 0.01 0 0zm0 0c0.12,0.08 0.15,0.25 0.07,0.37 -0.08,0.12 -0.25,0.15 -0.37,0.07l0.3 -0.44zm0.47 0.54l-0.45 0.26 0 0 -0.01 -0.01 -0.01 -0.02 -0.01 -0.02 -0.01 -0.01 -0.01 -0.02 -0.01 -0.01 -0.01 -0.01 -0.01 -0.02 -0.01 -0.01 -0.01 -0.02 -0.01 -0.01 -0.01 -0.01 -0.01 -0.01 -0.01 -0.02 -0.01 -0.01 -0.01 -0.01 -0.01 -0.01 -0.01 -0.01 -0.01 -0.01 -0.01 -0.01 -0.01 -0.01 -0.01 -0.01 -0.01 -0.01 -0.01 -0.01 -0.01 -0.01 -0.01 -0.01 -0.01 -0.01 -0.01 0 -0.01 -0.01 -0.01 -0.01 -0.01 -0.01 -0.01 0 0.3 -0.44 0.01 0.01 0.02 0.02 0.02 0.01 0.02 0.01 0.01 0.02 0.02 0.01 0.02 0.01 0.01 0.02 0.02 0.01 0.02 0.02 0.01 0.01 0.02 0.02 0.01 0.02 0.02 0.01 0.01 0.02 0.02 0.02 0.01 0.01 0.02 0.02 0.01 0.02 0.02 0.02 0.01 0.01 0.01 0.02 0.02 0.02 0.01 0.02 0.01 0.02 0.02 0.02 0.01 0.02 0.01 0.02 0.02 0.02 0.01 0.02 0.01 0.02 0.01 0.02 0 0zm0 0c0.07,0.13 0.03,0.29 -0.09,0.36 -0.13,0.07 -0.29,0.03 -0.36,-0.1l0.45 -0.26zm0.4 1.01l-0.51 0.13 0 0 -0.01 -0.03 -0.01 -0.03 -0.01 -0.03 -0.01 -0.04 0 -0.03 -0.01 -0.03 -0.01 -0.03 -0.01 -0.03 -0.01 -0.03 -0.01 -0.03 -0.01 -0.03 -0.01 -0.03 -0.01 -0.03 -0.01 -0.02 -0.01 -0.03 -0.01 -0.03 -0.01 -0.03 -0.02 -0.02 -0.01 -0.03 -0.01 -0.03 -0.01 -0.02 -0.01 -0.03 -0.01 -0.02 -0.01 -0.03 -0.02 -0.02 -0.01 -0.03 -0.01 -0.02 -0.01 -0.03 -0.01 -0.02 -0.02 -0.02 -0.01 -0.03 -0.01 -0.02 0.45 -0.26 0.02 0.03 0.01 0.03 0.02 0.02 0.01 0.03 0.02 0.03 0.01 0.03 0.02 0.03 0.01 0.03 0.01 0.03 0.02 0.03 0.01 0.03 0.01 0.03 0.02 0.03 0.01 0.03 0.01 0.03 0.01 0.03 0.02 0.03 0.01 0.03 0.01 0.04 0.01 0.03 0.01 0.03 0.01 0.03 0.02 0.04 0.01 0.03 0.01 0.04 0.01 0.03 0.01 0.03 0.01 0.04 0.01 0.03 0.01 0.04 0.01 0.04 0.01 0.03 0 0zm0 0c0.03,0.14 -0.05,0.28 -0.19,0.32 -0.14,0.04 -0.28,-0.05 -0.32,-0.19l0.51 -0.13zm0.11 0.36l-0.42 0.31 0 0 -0.01 -0.01 -0.01 -0.02 -0.01 -0.01 0 -0.01 -0.01 -0.02 -0.01 -0.01 -0.01 -0.02 0 -0.01 -0.01 -0.01 -0.01 -0.02 0 -0.01 -0.01 -0.01 0 -0.02 -0.01 -0.02 0 -0.01 -0.01 -0.02 -0.01 -0.01 0 -0.02 -0.01 -0.02 0 -0.01 -0.01 -0.02 0 -0.02 -0.01 -0.02 -0.01 -0.02 0 -0.02 -0.01 -0.02 0 -0.02 -0.01 -0.02 0 -0.02 -0.01 -0.02 -0.01 -0.03 0 -0.02 0.51 -0.13 0 0.03 0.01 0.02 0 0.02 0.01 0.01 0 0.02 0.01 0.02 0 0.02 0.01 0.02 0 0.01 0.01 0.02 0 0.01 0.01 0.02 0 0.01 0.01 0.01 0 0.02 0 0.01 0.01 0.01 0 0.01 0.01 0.01 0 0.01 0 0.01 0.01 0.01 0 0 0 0.01 0.01 0.01 0 0 0 0 0 0.01 0 0 0 0 0 0 0 0 0 0zm0 0c0.09,0.11 0.06,0.28 -0.05,0.36 -0.12,0.09 -0.28,0.07 -0.37,-0.05l0.42 -0.31zm-0.06 -0.02l0 0.53 0 0 -0.01 0 -0.01 -0.01 -0.02 0 -0.01 0 -0.02 0 -0.01 0 -0.01 -0.01 -0.02 0 -0.01 0 -0.01 -0.01 -0.02 0 -0.01 -0.01 -0.01 0 -0.02 -0.01 -0.01 -0.01 -0.01 0 -0.01 -0.01 -0.01 -0.01 -0.01 0 -0.02 -0.01 -0.01 -0.01 -0.01 -0.01 0 -0.01 -0.01 -0.01 -0.01 -0.01 -0.01 0 -0.01 -0.01 -0.01 -0.01 -0.01 -0.01 -0.01 -0.01 0 -0.01 -0.01 -0.01 0.42 -0.31 0 0 0 0 0 0 0.01 0 -0.01 0 0.01 0 0 0 -0.01 0 0 0 0 0 0 0 0 0 0 0 0 0 0 0 0 0 -0.01 -0.01 0 0 0 0 0 0 -0.01 0 0 0 0 0 -0.01 0 0 -0.01 -0.01 0 0 0 0 0 -0.01 0 0 0 0 0 -0.01 0 0 0zm0 0c0.15,0 0.27,0.12 0.27,0.26 0,0.15 -0.12,0.27 -0.27,0.27l0 -0.53zm0.29 -0.64l0 0.52 0.26 -0.24 -0.01 0.04 0 0.04 0 0.04 -0.01 0.04 0 0.04 -0.01 0.04 -0.01 0.04 0 0.03 -0.01 0.04 -0.01 0.03 -0.01 0.03 0 0.04 -0.01 0.03 -0.01 0.03 -0.02 0.03 -0.01 0.03 -0.01 0.03 -0.02 0.03 -0.01 0.02 -0.02 0.03 -0.02 0.03 -0.02 0.02 -0.02 0.03 -0.03 0.02 -0.03 0.03 -0.03 0.02 -0.03 0.01 -0.04 0.02 -0.03 0.01 -0.04 0.01 -0.04 0 -0.04 0.01 0 -0.53 0 0 -0.01 0 -0.01 0.01 -0.01 0 -0.01 0 -0.01 0.01 -0.01 0 0 0 0 0.01 0 0 0 0 0 0 0 -0.01 0 0 0.01 -0.01 0 -0.01 0.01 -0.01 0 -0.02 0.01 -0.01 0 -0.02 0.01 -0.02 0 -0.02 0.01 -0.02 0 -0.03 0.01 -0.02 0 -0.03 0.01 -0.03 0 -0.03 0 -0.03 0.01 -0.04 0 -0.03 0 -0.04 0.27 -0.24zm-0.27 0.24c0.01,-0.14 0.14,-0.25 0.28,-0.24 0.15,0.01 0.26,0.14 0.25,0.28l-0.53 -0.04zm0.58 0.28l-0.31 0 0 -0.52 0.31 0 0.26 0.27 -0.26 0.25zm0 -0.52c0.15,0 0.26,0.12 0.26,0.26 0,0.15 -0.11,0.26 -0.26,0.26l0 -0.52zm-0.1 1.41l-0.39 -0.35 0 0 0.01 -0.01 0.01 -0.01 0.01 -0.02 0.01 -0.01 0.01 -0.02 0.01 -0.01 0.01 -0.02 0.01 -0.02 0.01 -0.02 0.01 -0.01 0.01 -0.03 0.01 -0.02 0 -0.02 0.01 -0.02 0.01 -0.03 0.01 -0.02 0.01 -0.03 0 -0.02 0.01 -0.03 0.01 -0.03 0 -0.03 0.01 -0.03 0.01 -0.03 0 -0.03 0.01 -0.04 0 -0.03 0 -0.03 0.01 -0.04 0 -0.04 0 -0.03 0.01 -0.04 0 -0.04 0.52 0.02 0 0.05 0 0.04 -0.01 0.05 0 0.04 -0.01 0.04 0 0.05 -0.01 0.04 0 0.04 -0.01 0.04 -0.01 0.04 0 0.04 -0.01 0.03 -0.01 0.04 -0.01 0.04 -0.01 0.04 -0.01 0.03 -0.01 0.04 -0.01 0.03 -0.02 0.04 -0.01 0.03 -0.01 0.03 -0.02 0.03 -0.01 0.04 -0.02 0.03 -0.01 0.03 -0.02 0.03 -0.02 0.03 -0.02 0.02 -0.02 0.03 -0.02 0.03 -0.02 0.03 -0.02 0.02 0 0zm0 0c-0.1,0.11 -0.26,0.12 -0.37,0.02 -0.11,-0.09 -0.12,-0.26 -0.02,-0.37l0.39 0.35zm-0.93 0.38l0 -0.52 0 0 0.02 0 0.02 0 0.03 0 0.02 0 0.02 -0.01 0.02 0 0.03 0 0.02 0 0.02 -0.01 0.02 0 0.01 -0.01 0.02 0 0.02 -0.01 0.02 0 0.02 -0.01 0.01 -0.01 0.02 0 0.01 -0.01 0.02 -0.01 0.01 0 0.02 -0.01 0.01 -0.01 0.02 -0.01 0.01 -0.01 0.01 -0.01 0.02 -0.01 0.01 -0.01 0.01 -0.01 0.01 -0.01 0.01 -0.01 0.02 -0.01 0.01 -0.02 0.39 0.35 -0.02 0.02 -0.02 0.03 -0.03 0.02 -0.02 0.02 -0.02 0.02 -0.03 0.02 -0.02 0.02 -0.03 0.02 -0.03 0.02 -0.02 0.01 -0.03 0.02 -0.03 0.02 -0.03 0.01 -0.02 0.02 -0.03 0.01 -0.03 0.01 -0.03 0.01 -0.03 0.01 -0.03 0.01 -0.04 0.01 -0.03 0.01 -0.03 0.01 -0.03 0.01 -0.03 0 -0.04 0.01 -0.03 0 -0.03 0.01 -0.04 0 -0.03 0 -0.03 0 -0.04 0 -0.03 0 0 0zm0 0c-0.15,0 -0.27,-0.11 -0.27,-0.26 0,-0.14 0.12,-0.26 0.27,-0.26l0 0.52zm-0.7 -0.18l0.3 -0.44 0 0 0.01 0.01 0.01 0 0 0.01 0.01 0 0.01 0.01 0.01 0 0.01 0.01 0.01 0 0.01 0.01 0.01 0 0.01 0 0.01 0.01 0.01 0 0.01 0.01 0.01 0 0.02 0 0.01 0.01 0.01 0 0.01 0 0.02 0 0.01 0.01 0.02 0 0.01 0 0.01 0 0.02 0 0.02 0.01 0.01 0 0.02 0 0.01 0 0.02 0 0.02 0 0.02 0 0 0.52 -0.03 0 -0.02 0 -0.03 0 -0.02 0 -0.02 0 -0.03 0 -0.02 0 -0.02 -0.01 -0.03 0 -0.02 0 -0.02 -0.01 -0.03 0 -0.02 0 -0.02 -0.01 -0.02 0 -0.03 -0.01 -0.02 -0.01 -0.02 0 -0.02 -0.01 -0.02 -0.01 -0.02 0 -0.02 -0.01 -0.02 -0.01 -0.02 -0.01 -0.02 -0.01 -0.02 -0.01 -0.02 -0.01 -0.02 -0.01 -0.02 -0.01 -0.02 -0.01 -0.02 -0.01 -0.02 -0.01 0 0zm0 0c-0.12,-0.09 -0.15,-0.25 -0.06,-0.37 0.08,-0.12 0.24,-0.15 0.36,-0.07l-0.3 0.44zm-0.4 -0.54l0.48 -0.2 0 0.01 0.01 0.01 0 0.01 0.01 0.02 0 0.01 0.01 0.01 0.01 0.01 0 0.02 0.01 0.01 0 0.01 0.01 0.01 0.01 0.01 0 0.01 0.01 0.01 0.01 0.01 0 0.01 0.01 0.01 0.01 0.01 0 0 0.01 0.01 0.01 0.01 0 0.01 0.01 0.01 0.01 0 0.01 0.01 0 0.01 0.01 0.01 0.01 0 0.01 0.01 0.01 0.01 0 0 0.01 0.01 0.01 0 -0.3 0.44 -0.02 -0.02 -0.01 -0.01 -0.02 -0.01 -0.01 -0.02 -0.02 -0.01 -0.02 -0.01 -0.01 -0.02 -0.02 -0.01 -0.01 -0.02 -0.02 -0.01 -0.01 -0.02 -0.02 -0.01 -0.01 -0.02 -0.01 -0.01 -0.02 -0.02 -0.01 -0.02 -0.01 -0.02 -0.01 -0.01 -0.02 -0.02 -0.01 -0.02 -0.01 -0.02 -0.01 -0.01 -0.01 -0.02 -0.01 -0.02 -0.01 -0.02 -0.01 -0.02 -0.01 -0.02 -0.01 -0.02 -0.01 -0.02 -0.01 -0.02 -0.01 -0.02 -0.01 -0.02 0.01 0zm-0.01 0c-0.05,-0.14 0.02,-0.29 0.15,-0.34 0.14,-0.05 0.29,0.01 0.34,0.15l-0.49 0.19zm-0.19 -0.78l0.52 -0.1 0 0 0 0.03 0.01 0.03 0.01 0.04 0 0.03 0.01 0.03 0.01 0.03 0 0.03 0.01 0.03 0.01 0.03 0 0.03 0.01 0.03 0 0.02 0.01 0.03 0 0.02 0.01 0.03 0.01 0.02 0 0.02 0.01 0.02 0 0.02 0.01 0.02 0 0.02 0.01 0.01 0 0.02 0 0.01 0.01 0.02 0 0.01 0.01 0.01 0 0.01 0 0.01 0.01 0.01 0 0.01 0 0 -0.48 0.2 -0.01 -0.01 -0.01 -0.02 0 -0.01 -0.01 -0.02 0 -0.02 -0.01 -0.01 0 -0.02 -0.01 -0.02 0 -0.02 -0.01 -0.02 -0.01 -0.02 0 -0.02 -0.01 -0.02 0 -0.02 -0.01 -0.02 0 -0.03 -0.01 -0.02 -0.01 -0.03 0 -0.02 -0.01 -0.03 0 -0.03 -0.01 -0.03 -0.01 -0.02 0 -0.03 -0.01 -0.04 -0.01 -0.03 0 -0.03 -0.01 -0.03 -0.01 -0.04 0 -0.03 -0.01 -0.04 -0.01 -0.03 0 0zm0 0c-0.03,-0.14 0.06,-0.28 0.21,-0.31 0.14,-0.03 0.28,0.06 0.31,0.21l-0.52 0.1zm-0.22 -0.86l0.48 -0.22 0 0.01 0.01 0.02 0.01 0.01 0 0.03 0.01 0.02 0.01 0.02 0.01 0.02 0.01 0.02 0 0.03 0.01 0.02 0.01 0.03 0.01 0.02 0.01 0.03 0 0.03 0.01 0.02 0.01 0.03 0.01 0.03 0 0.03 0.01 0.03 0.01 0.04 0.01 0.03 0.01 0.03 0 0.04 0.01 0.03 0.01 0.04 0.01 0.03 0.01 0.04 0 0.04 0.01 0.04 0.01 0.04 0.01 0.04 0.01 0.04 0.01 0.05 -0.52 0.1 -0.01 -0.05 -0.01 -0.04 0 -0.04 -0.01 -0.03 -0.01 -0.04 -0.01 -0.04 0 -0.03 -0.01 -0.04 -0.01 -0.03 -0.01 -0.04 0 -0.03 -0.01 -0.03 -0.01 -0.03 -0.01 -0.03 0 -0.03 -0.01 -0.03 -0.01 -0.02 0 -0.03 -0.01 -0.02 -0.01 -0.03 0 -0.02 -0.01 -0.02 -0.01 -0.02 0 -0.02 -0.01 -0.02 -0.01 -0.02 0 -0.01 -0.01 -0.02 0 -0.01 -0.01 -0.02 0 -0.01 -0.01 -0.01 0 0zm0 0c-0.06,-0.13 0,-0.29 0.13,-0.35 0.14,-0.05 0.29,0 0.35,0.14l-0.48 0.21zm-0.18 -0.24l0.29 -0.43 0 0 0.02 0.01 0.01 0.01 0.02 0.01 0.01 0.01 0.02 0.01 0.01 0.02 0.01 0.01 0.02 0.01 0.01 0.01 0.01 0.01 0.01 0.02 0.02 0.01 0.01 0.02 0.01 0.01 0.01 0.01 0.01 0.02 0.02 0.01 0.01 0.02 0.01 0.01 0.01 0.02 0.01 0.01 0.01 0.02 0.01 0.01 0.01 0.02 0.01 0.02 0.01 0.01 0.01 0.02 0.01 0.02 0 0.01 0.01 0.02 0.01 0.02 0.01 0.01 -0.48 0.22 0 -0.01 -0.01 -0.01 0 -0.01 -0.01 -0.01 0 -0.01 -0.01 -0.01 -0.01 -0.01 0 -0.01 -0.01 -0.01 0 -0.01 -0.01 -0.01 0 -0.01 -0.01 0 0 -0.01 -0.01 -0.01 -0.01 -0.01 0 0 -0.01 -0.01 0 -0.01 -0.01 0 0 -0.01 -0.01 -0.01 -0.01 0 0 -0.01 -0.01 0 0 -0.01 -0.01 0 -0.01 -0.01 0 0 -0.01 -0.01 0 0 -0.01 -0.01 0 0zm0 0c-0.12,-0.08 -0.15,-0.24 -0.07,-0.36 0.08,-0.12 0.24,-0.15 0.36,-0.07l-0.29 0.43zm-0.27 -0.06l0 -0.53 0 0 0.02 0 0.02 0 0.02 0 0.02 0 0.02 0.01 0.01 0 0.02 0 0.02 0 0.02 0 0.02 0.01 0.02 0 0.02 0 0.01 0.01 0.02 0 0.02 0 0.02 0.01 0.02 0 0.01 0.01 0.02 0.01 0.02 0 0.02 0.01 0.01 0 0.02 0.01 0.02 0.01 0.01 0.01 0.02 0 0.02 0.01 0.01 0.01 0.02 0.01 0.01 0.01 0.02 0.01 0.01 0.01 -0.29 0.43 -0.01 0 0 0 -0.01 -0.01 0 0 -0.01 0 -0.01 -0.01 0 0 -0.01 0 -0.01 -0.01 0 0 -0.01 0 -0.01 -0.01 -0.01 0 0 0 -0.01 0 -0.01 -0.01 -0.01 0 -0.01 0 -0.01 0 0 0 -0.01 0 -0.01 -0.01 -0.01 0 -0.01 0 -0.01 0 -0.01 0 -0.01 0 -0.01 0 -0.02 0 -0.01 0 -0.01 0 -0.01 0 0 0zm0 0c-0.14,0 -0.26,-0.12 -0.26,-0.27 0,-0.14 0.12,-0.26 0.26,-0.26l0 0.53zm-0.39 -0.53l0.39 0 0 0.53 -0.39 0 -0.26 -0.27 0.26 -0.26zm0 0.53c-0.14,0 -0.26,-0.12 -0.26,-0.27 0,-0.14 0.12,-0.26 0.26,-0.26l0 0.53zm-0.26 1.73l0 -2 0.52 0 0 2 0 0 -0.52 0zm0.52 0c0,0.14 -0.11,0.26 -0.26,0.26 -0.14,0 -0.26,-0.12 -0.26,-0.26l0.52 0zm-0.01 0l-0.34 0.4 -0.01 -0.01 -0.01 -0.01 -0.01 -0.01 -0.01 -0.01 -0.01 -0.01 -0.01 -0.01 -0.01 -0.01 -0.01 -0.01 -0.01 -0.02 0 -0.01 -0.01 -0.01 -0.01 -0.01 0 -0.01 -0.01 -0.02 0 -0.01 -0.01 -0.01 0 -0.01 -0.01 -0.02 0 -0.01 -0.01 -0.01 0 -0.02 0 -0.01 -0.01 -0.01 0 -0.02 0 -0.01 0 -0.01 -0.01 -0.01 0 -0.02 0 -0.01 0 -0.01 0 -0.02 0 -0.01 0 -0.01 0.52 0 0 0 0 0 0 0.01 0 0 0 0 0 0 0 0 0 0.01 0 0 0 0 0.01 0 0 0 0 0 0 0 0 0 0 0 0 0 0 0 -0.01 0 0 0 0 0 0 0 0 0 0 0 0 0 0 -0.01 0 0 0 0 0 0 0 0 0 0 0 0 -0.01 -0.01zm0.01 0.01c0.1,0.1 0.11,0.26 0.01,0.37 -0.1,0.1 -0.27,0.11 -0.37,0.01l0.36 -0.38zm0.07 0.02l0 0.52 0 0 -0.02 0 -0.01 0 -0.01 0 -0.02 0 -0.01 0 -0.02 0 -0.01 0 -0.02 -0.01 -0.01 0 -0.01 0 -0.02 -0.01 -0.01 0 -0.01 0 -0.02 -0.01 -0.01 0 -0.02 -0.01 -0.01 0 -0.01 -0.01 -0.02 0 -0.01 -0.01 -0.01 0 -0.01 -0.01 -0.02 -0.01 -0.01 0 -0.01 -0.01 -0.01 -0.01 -0.02 -0.01 -0.01 -0.01 -0.01 0 -0.01 -0.01 -0.01 -0.01 -0.01 -0.01 0.34 -0.4 0 0 0 0 0 0.01 0.01 0 0 0 0 0 0 0 0.01 0 0 0.01 0 0 0 0 0 0 0.01 0 0 0 0 0 0 0 0 0 0.01 0 0 0 0 0 0 0 0.01 0.01 0 0 0 0 0 0 0.01 0 0 0 0 0 0.01 0 0 0 0 0 0.01 0 0 0zm0 0c0.14,0 0.26,0.12 0.26,0.26 0,0.15 -0.12,0.26 -0.26,0.26l0 -0.52zm0.48 0.52l-0.48 0 0 -0.52 0.48 0 0.26 0.26 -0.26 0.26zm0 -0.52c0.14,0 0.26,0.12 0.26,0.26 0,0.15 -0.12,0.26 -0.26,0.26l0 -0.52zm-0.26 0.6l0 -0.34 0.52 0 0 0.34 -0.26 0.26 -0.26 -0.26zm0.52 0c0,0.14 -0.12,0.26 -0.26,0.26 -0.15,0 -0.26,-0.12 -0.26,-0.26l0.52 0zm-2.95 -0.27l2.69 0 0 0.53 -2.69 0 -0.26 -0.26 0.26 -0.27zm0 0.53c-0.14,0 -0.26,-0.12 -0.26,-0.26 0,-0.15 0.12,-0.27 0.26,-0.27l0 0.53zm0.26 -0.6l0 0.34 -0.52 0 0 -0.34 0.26 -0.26 0.26 0.26zm-0.52 0c0,-0.14 0.12,-0.26 0.26,-0.26 0.15,0 0.26,0.12 0.26,0.26l-0.52 0zm0.68 0.26l-0.42 0 0 -0.52 0.42 0 0 0 0 0.52zm0 -0.52c0.14,0 0.26,0.12 0.26,0.26 0,0.15 -0.12,0.26 -0.26,0.26l0 -0.52zm0.05 -0.01l0.38 0.37 0 0 -0.01 0.01 -0.01 0.01 -0.01 0.01 -0.01 0.01 -0.02 0.01 -0.01 0.01 -0.01 0.01 -0.01 0 -0.02 0.01 -0.01 0.01 -0.02 0.01 -0.01 0 -0.01 0.01 -0.02 0.01 -0.01 0 -0.01 0.01 -0.02 0 -0.01 0.01 -0.02 0 -0.01 0 -0.01 0.01 -0.02 0 -0.01 0 -0.02 0 -0.01 0.01 -0.02 0 -0.01 0 -0.01 0 -0.02 0 -0.01 0 -0.02 0 -0.01 0 0 -0.52 0 0 0.01 0 0 0 0.01 0 0 0 0.01 0 0 0 0 0 0.01 0 0 -0.01 0 0 0 0 0.01 0 0 0 0 0 0 0 0 0 0 0 0.01 0 -0.01 0 0.01 0 0 0 0 0 0 0 0 0 0 0 0 0 -0.01 0 0 0 0 0 0 0 0 0 0 0zm0 0c0.1,-0.1 0.27,-0.1 0.37,0 0.11,0.1 0.11,0.26 0.01,0.37l-0.38 -0.37zm0.01 -0.05l0.53 0 0 0 0 0.01 0 0.01 -0.01 0.02 0 0.01 0 0.01 0 0.02 0 0.01 0 0.02 0 0.01 -0.01 0.01 0 0.02 0 0.01 -0.01 0.02 0 0.01 0 0.01 -0.01 0.02 0 0.01 -0.01 0.01 0 0.02 -0.01 0.01 -0.01 0.01 0 0.02 -0.01 0.01 -0.01 0.01 -0.01 0.01 0 0.02 -0.01 0.01 -0.01 0.01 -0.01 0.01 -0.01 0.01 -0.01 0.02 -0.01 0.01 -0.38 -0.37 0 0 0 0 0 0 0 0 0 0 0 0 0 0 0 0 0 0 0 0 0 0 0 0 0 0 0 0 0.01 0 0 0 0 0 0 -0.01 0 0 0 0 0 0 0 0 0 -0.01 0 0 0 0 0 -0.01 0 0 0 -0.01 0 0 0 0 0 -0.01 0 0 0 0zm0 0c0,-0.15 0.12,-0.27 0.26,-0.27 0.15,0 0.27,0.12 0.27,0.27l-0.53 0zm0.53 -4.08l0 4.08 -0.53 0 0 -4.08 0 0 0.53 0zm-0.53 0c0,-0.14 0.12,-0.26 0.26,-0.26 0.15,0 0.27,0.12 0.27,0.26l-0.53 0zm0 -0.06l0.38 -0.37 0 0 0.01 0.02 0.01 0.01 0.01 0.01 0.01 0.01 0.01 0.02 0.01 0.01 0 0.01 0.01 0.01 0.01 0.02 0.01 0.01 0 0.01 0.01 0.02 0 0.01 0.01 0.01 0 0.02 0.01 0.01 0 0.01 0 0.02 0.01 0.01 0 0.02 0 0.01 0.01 0.01 0 0.02 0 0.01 0 0.01 0 0.02 0 0.01 0 0.02 0 0.01 0.01 0.01 0 0.02 0 0.01 -0.53 0 0 0 0 -0.01 0 -0.01 0 0 0 -0.01 0 0 0 -0.01 0 0 0 -0.01 0 0 0 0 0 -0.01 0 0 0 0 -0.01 -0.01 0 0 0 0 0 0 0 0 0 0 0 0 0 0 0 0 0 0 0 0 0 0 0 0 0 0 0.01 0 0 0 0 0.01 0 0 0 0zm0 0c-0.1,-0.11 -0.1,-0.27 0.01,-0.37 0.1,-0.1 0.27,-0.1 0.37,0l-0.38 0.37zm-0.03 0l0 -0.52 0 0 0.02 0 0.01 0 0.01 0 0.02 0 0.01 0 0.01 0 0.02 0 0.01 0 0.01 0.01 0.02 0 0.01 0 0.01 0 0.02 0.01 0.01 0 0.01 0.01 0.02 0 0.01 0.01 0.01 0 0.02 0.01 0.01 0 0.01 0.01 0.02 0.01 0.01 0 0.01 0.01 0.01 0.01 0.01 0.01 0.01 0.01 0.02 0 0.01 0.01 0.01 0.01 0.01 0.01 0.01 0.01 -0.38 0.37 0 0 0 0 0 0 0 0 0 0 0 0 0.01 0 0 0 0 0 0 0 0 0 0 0 0 0 0 0 0 0 0 0 0 0 0 0 0 0 0 0 -0.01 0 0 0 0 0 0 0 0 0 -0.01 0 0 0 0 0 0 0 -0.01 0 0 0 -0.01 0 0 0zm0 0c-0.14,0 -0.26,-0.12 -0.26,-0.26 0,-0.15 0.12,-0.26 0.26,-0.26l0 0.52zm-0.45 -0.52l0.45 0 0 0.52 -0.45 0 -0.26 -0.26 0.26 -0.26zm0 0.52c-0.14,0 -0.26,-0.12 -0.26,-0.26 0,-0.15 0.12,-0.26 0.26,-0.26l0 0.52zm0.26 -0.6l0 0.34 -0.52 0 0 -0.34 0.26 -0.26 0.26 0.26zm-0.52 0c0,-0.14 0.12,-0.26 0.26,-0.26 0.15,0 0.26,0.12 0.26,0.26l-0.52 0zm2.59 2.71l-0.45 0 0 -0.53 0.45 0 0 0 0 0.53zm0 -0.53c0.14,0 0.26,0.12 0.26,0.26 0,0.15 -0.12,0.27 -0.26,0.27l0 -0.53zm0.76 -0.24l0.35 0.39 0 0 -0.03 0.02 -0.02 0.03 -0.03 0.02 -0.03 0.02 -0.03 0.02 -0.03 0.02 -0.03 0.02 -0.03 0.02 -0.03 0.02 -0.03 0.01 -0.04 0.02 -0.03 0.01 -0.03 0.02 -0.04 0.01 -0.03 0.01 -0.04 0.02 -0.03 0.01 -0.04 0.01 -0.03 0.01 -0.04 0.01 -0.04 0 -0.04 0.01 -0.03 0.01 -0.04 0.01 -0.04 0 -0.04 0 -0.04 0.01 -0.04 0 -0.04 0 -0.04 0.01 -0.04 0 -0.04 0 0 -0.53 0.03 0 0.03 0 0.03 0 0.04 0 0.03 0 0.02 -0.01 0.03 0 0.03 0 0.03 -0.01 0.03 0 0.02 -0.01 0.03 0 0.03 -0.01 0.02 -0.01 0.02 0 0.03 -0.01 0.02 -0.01 0.02 -0.01 0.03 -0.01 0.02 -0.01 0.02 -0.01 0.02 -0.01 0.02 -0.01 0.02 -0.01 0.02 -0.01 0.02 -0.01 0.02 -0.01 0.01 -0.01 0.02 -0.02 0.02 -0.01 0.02 -0.01 0.01 -0.02 0 0zm0 0c0.11,-0.1 0.27,-0.09 0.37,0.02 0.1,0.11 0.09,0.27 -0.02,0.37l-0.35 -0.39zm0.17 -0.6l0.53 0 0 0 0 0.04 0 0.04 -0.01 0.03 0 0.04 0 0.04 0 0.03 -0.01 0.04 0 0.03 -0.01 0.04 0 0.03 -0.01 0.04 -0.01 0.03 0 0.03 -0.01 0.04 -0.01 0.03 -0.01 0.03 -0.01 0.03 -0.01 0.03 -0.01 0.03 -0.02 0.03 -0.01 0.03 -0.01 0.03 -0.02 0.03 -0.02 0.02 -0.01 0.03 -0.02 0.03 -0.02 0.02 -0.02 0.03 -0.02 0.02 -0.02 0.02 -0.02 0.03 -0.03 0.02 -0.35 -0.39 0.01 -0.01 0.01 0 0.01 -0.01 0 -0.01 0.01 -0.01 0.01 -0.02 0.01 -0.01 0.01 -0.01 0 -0.01 0.01 -0.01 0.01 -0.02 0.01 -0.01 0 -0.02 0.01 -0.02 0 -0.01 0.01 -0.02 0.01 -0.02 0 -0.02 0.01 -0.02 0 -0.02 0.01 -0.03 0 -0.02 0.01 -0.02 0 -0.03 0 -0.02 0 -0.03 0.01 -0.02 0 -0.03 0 -0.03 0 -0.03 0 -0.03 0 -0.03 0 0zm0 0c0,-0.15 0.12,-0.26 0.26,-0.26 0.15,0 0.27,0.11 0.27,0.26l-0.53 0zm-0.17 -0.57l0.36 -0.38 0 0 0.02 0.02 0.02 0.02 0.02 0.03 0.02 0.02 0.02 0.03 0.02 0.02 0.02 0.03 0.01 0.02 0.02 0.03 0.02 0.03 0.01 0.02 0.01 0.03 0.02 0.03 0.01 0.03 0.01 0.03 0.01 0.03 0.01 0.03 0.01 0.03 0.01 0.03 0 0.03 0.01 0.03 0.01 0.03 0 0.04 0.01 0.03 0 0.03 0.01 0.04 0 0.03 0 0.04 0 0.03 0.01 0.04 0 0.03 0 0.04 -0.53 0 0 -0.03 0 -0.03 0 -0.02 0 -0.03 0 -0.02 0 -0.03 -0.01 -0.02 0 -0.03 0 -0.02 -0.01 -0.02 0 -0.02 -0.01 -0.02 0 -0.02 -0.01 -0.02 0 -0.02 -0.01 -0.02 0 -0.01 -0.01 -0.02 -0.01 -0.01 0 -0.02 -0.01 -0.01 -0.01 -0.02 0 -0.01 -0.01 -0.01 -0.01 -0.01 -0.01 -0.02 0 -0.01 -0.01 -0.01 -0.01 -0.01 -0.01 -0.01 -0.01 -0.01 -0.01 -0.01 0 0zm0 0c-0.1,-0.09 -0.11,-0.26 -0.01,-0.37 0.1,-0.1 0.26,-0.11 0.37,-0.01l-0.36 0.38zm-0.7 -0.16l0 -0.53 0 0 0.04 0 0.04 0 0.04 0.01 0.04 0 0.04 0 0.04 0 0.04 0.01 0.04 0 0.04 0 0.03 0.01 0.04 0 0.03 0.01 0.04 0.01 0.03 0 0.04 0.01 0.03 0.01 0.03 0.01 0.04 0.01 0.03 0.01 0.03 0.01 0.03 0.02 0.03 0.01 0.03 0.01 0.03 0.02 0.03 0.01 0.03 0.02 0.02 0.01 0.03 0.02 0.03 0.02 0.02 0.02 0.03 0.02 0.02 0.02 -0.36 0.38 -0.01 0 -0.01 -0.01 -0.01 -0.01 -0.01 -0.01 -0.01 -0.01 -0.01 0 -0.02 -0.01 -0.01 -0.01 -0.01 -0.01 -0.02 0 -0.02 -0.01 -0.01 -0.01 -0.02 0 -0.02 -0.01 -0.02 -0.01 -0.03 0 -0.02 -0.01 -0.02 0 -0.02 -0.01 -0.03 0 -0.03 -0.01 -0.02 0 -0.03 -0.01 -0.03 0 -0.03 0 -0.03 -0.01 -0.03 0 -0.03 0 -0.04 0 -0.03 0 -0.03 0 -0.04 0 0 0zm0 0c-0.14,0 -0.26,-0.12 -0.26,-0.27 0,-0.14 0.12,-0.26 0.26,-0.26l0 0.53zm-0.25 0.01l-0.35 -0.4 0.01 0 0.01 -0.01 0.02 -0.02 0.02 -0.01 0.02 -0.01 0.01 -0.01 0.02 0 0.02 -0.01 0.01 -0.01 0.02 0 0.02 -0.01 0.01 0 0.02 -0.01 0.02 0 0.01 -0.01 0.02 0 0.02 0 0.02 -0.01 0.02 0 0.01 0 0.02 0 0.02 -0.01 0.02 0 0.02 0 0.02 0 0.02 0 0.02 0 0.02 -0.01 0.02 0 0.02 0 0.02 0 0.03 0 0.02 0 0 0.53 -0.02 0 -0.02 0 -0.02 0 -0.01 0 -0.02 0 -0.01 0 -0.02 0 -0.02 0 -0.01 0 -0.01 0 -0.02 0 -0.01 0.01 -0.01 0 -0.01 0 -0.01 0 -0.01 0 -0.01 0 -0.01 0 0 0.01 -0.01 0 0 0 -0.01 0 0 0 0 0 0 0 0 0 0 0 0 0 0 0 0.01 0 0 -0.01 0.01 0 0 0zm0 0c-0.11,0.09 -0.28,0.08 -0.37,-0.03 -0.1,-0.11 -0.08,-0.27 0.03,-0.37l0.34 0.4zm0 0.13l-0.52 0 0 0 0 -0.02 0 -0.01 0 -0.02 0 -0.02 0 -0.02 0 -0.02 0 -0.01 0.01 -0.02 0 -0.02 0 -0.01 0 -0.02 0 -0.02 0.01 -0.02 0 -0.01 0 -0.02 0.01 -0.01 0 -0.02 0.01 -0.02 0 -0.01 0.01 -0.02 0.01 -0.02 0 -0.01 0.01 -0.02 0.01 -0.01 0.01 -0.02 0.01 -0.02 0.01 -0.01 0.01 -0.02 0.01 -0.01 0.01 -0.02 0.02 -0.01 0.01 -0.02 0.35 0.4 0 -0.01 0.01 0 0 0 0 -0.01 0.01 0 0 0 0 -0.01 0 0 0 0 0 0 0 0 0 0 0 0.01 0 0 0 0 0 0.01 0 0 -0.01 0.01 0 0 0 0.01 0 0 0 0.01 0 0.01 0 0.01 0 0.01 0 0.01 -0.01 0.01 0 0.01 0 0.01 0 0.02 0 0.01 0 0.01 0 0zm0 0c0,0.15 -0.11,0.26 -0.26,0.26 -0.14,0 -0.26,-0.11 -0.26,-0.26l0.52 0zm-0.52 1.69l0 -1.69 0.52 0 0 1.69 -0.26 0.27 -0.26 -0.27zm0.52 0c0,0.15 -0.11,0.27 -0.26,0.27 -0.14,0 -0.26,-0.12 -0.26,-0.27l0.52 0zm9.9 -2.43l-0.27 0.45 0 0 -0.03 -0.02 -0.04 -0.02 -0.03 -0.02 -0.04 -0.02 -0.04 -0.01 -0.03 -0.02 -0.04 -0.02 -0.04 -0.01 -0.04 -0.02 -0.03 -0.01 -0.04 -0.02 -0.04 -0.01 -0.04 -0.01 -0.04 -0.02 -0.03 -0.01 -0.04 -0.01 -0.04 -0.01 -0.04 -0.01 -0.04 -0.01 -0.04 0 -0.04 -0.01 -0.04 -0.01 -0.04 0 -0.04 -0.01 -0.04 -0.01 -0.04 0 -0.04 0 -0.05 -0.01 -0.04 0 -0.04 0 -0.04 0 -0.04 0 0 -0.53 0.05 0.01 0.05 0 0.05 0 0.05 0 0.05 0 0.05 0.01 0.05 0 0.05 0.01 0.04 0.01 0.05 0 0.05 0.01 0.05 0.01 0.05 0.01 0.05 0.01 0.04 0.01 0.05 0.02 0.05 0.01 0.05 0.01 0.04 0.02 0.05 0.01 0.05 0.02 0.04 0.02 0.05 0.01 0.04 0.02 0.05 0.02 0.04 0.02 0.05 0.02 0.04 0.02 0.05 0.03 0.04 0.02 0.04 0.02 0.05 0.03 0 0zm0 0c0.12,0.07 0.16,0.23 0.09,0.36 -0.07,0.12 -0.23,0.16 -0.36,0.09l0.27 -0.45zm1.08 1.1l-0.46 0.26 0 0 -0.02 -0.04 -0.02 -0.03 -0.02 -0.04 -0.02 -0.03 -0.02 -0.04 -0.03 -0.03 -0.02 -0.03 -0.02 -0.04 -0.03 -0.03 -0.02 -0.03 -0.03 -0.03 -0.02 -0.03 -0.03 -0.03 -0.02 -0.03 -0.03 -0.03 -0.03 -0.03 -0.03 -0.02 -0.03 -0.03 -0.02 -0.03 -0.03 -0.02 -0.03 -0.03 -0.03 -0.03 -0.03 -0.02 -0.04 -0.03 -0.03 -0.02 -0.03 -0.02 -0.03 -0.03 -0.04 -0.02 -0.03 -0.02 -0.04 -0.03 -0.03 -0.02 -0.04 -0.02 0.27 -0.45 0.04 0.02 0.04 0.03 0.04 0.03 0.05 0.02 0.04 0.03 0.04 0.03 0.04 0.03 0.03 0.03 0.04 0.03 0.04 0.03 0.04 0.03 0.03 0.03 0.04 0.04 0.04 0.03 0.03 0.03 0.04 0.04 0.03 0.03 0.03 0.04 0.03 0.03 0.04 0.04 0.03 0.04 0.03 0.03 0.03 0.04 0.03 0.04 0.03 0.04 0.02 0.04 0.03 0.04 0.03 0.04 0.03 0.04 0.02 0.05 0.03 0.04 0.02 0.04 0 0zm0 0c0.07,0.13 0.03,0.29 -0.1,0.36 -0.13,0.07 -0.29,0.02 -0.36,-0.1l0.46 -0.26zm0.39 1.57l-0.53 0 0 0 0 -0.05 0 -0.05 0 -0.04 0 -0.05 -0.01 -0.04 0 -0.05 0 -0.04 -0.01 -0.04 0 -0.05 -0.01 -0.04 -0.01 -0.04 0 -0.05 -0.01 -0.04 -0.01 -0.04 -0.01 -0.04 -0.01 -0.04 -0.01 -0.04 -0.01 -0.04 -0.01 -0.04 -0.01 -0.04 -0.02 -0.04 -0.01 -0.04 -0.01 -0.04 -0.02 -0.04 -0.01 -0.04 -0.02 -0.03 -0.02 -0.04 -0.01 -0.04 -0.02 -0.03 -0.02 -0.04 -0.02 -0.04 -0.02 -0.03 0.46 -0.26 0.02 0.05 0.03 0.04 0.02 0.04 0.02 0.05 0.02 0.05 0.02 0.04 0.02 0.05 0.02 0.04 0.02 0.05 0.01 0.05 0.02 0.04 0.02 0.05 0.01 0.05 0.01 0.05 0.02 0.05 0.01 0.04 0.01 0.05 0.01 0.05 0.01 0.05 0.01 0.05 0.01 0.05 0.01 0.05 0.01 0.05 0 0.06 0.01 0.05 0 0.05 0.01 0.05 0 0.05 0 0.06 0 0.05 0.01 0.05 0 0.06 0 0zm0 0c0,0.14 -0.12,0.26 -0.27,0.26 -0.14,0 -0.26,-0.12 -0.26,-0.26l0.53 0zm-0.86 2.2l-0.37 -0.36 0 0 0.04 -0.05 0.04 -0.05 0.04 -0.04 0.04 -0.05 0.04 -0.05 0.04 -0.05 0.03 -0.05 0.03 -0.05 0.04 -0.05 0.03 -0.06 0.03 -0.05 0.03 -0.05 0.02 -0.06 0.03 -0.05 0.02 -0.06 0.02 -0.06 0.03 -0.05 0.02 -0.06 0.01 -0.06 0.02 -0.06 0.02 -0.06 0.01 -0.06 0.01 -0.06 0.02 -0.07 0.01 -0.06 0.01 -0.07 0 -0.06 0.01 -0.07 0.01 -0.07 0 -0.07 0 -0.06 0 -0.07 0.53 0 -0.01 0.08 0 0.08 0 0.08 -0.01 0.07 0 0.08 -0.01 0.08 -0.01 0.08 -0.02 0.07 -0.01 0.08 -0.02 0.07 -0.01 0.08 -0.02 0.07 -0.02 0.07 -0.03 0.07 -0.02 0.07 -0.03 0.07 -0.02 0.07 -0.03 0.07 -0.03 0.07 -0.04 0.06 -0.03 0.07 -0.04 0.06 -0.03 0.07 -0.04 0.06 -0.04 0.06 -0.05 0.06 -0.04 0.06 -0.05 0.06 -0.04 0.06 -0.05 0.06 -0.05 0.06 -0.06 0.05 0 0zm0 0c-0.1,0.11 -0.26,0.11 -0.37,0.01 -0.1,-0.1 -0.1,-0.27 0,-0.37l0.37 0.36zm-2.12 0.89l0 -0.52 0 0 0.07 0 0.06 -0.01 0.07 0 0.06 0 0.06 -0.01 0.07 -0.01 0.06 -0.01 0.06 -0.01 0.06 -0.01 0.05 -0.01 0.06 -0.02 0.06 -0.02 0.06 -0.01 0.05 -0.02 0.06 -0.02 0.05 -0.03 0.05 -0.02 0.06 -0.02 0.05 -0.03 0.05 -0.03 0.05 -0.03 0.05 -0.03 0.05 -0.03 0.05 -0.03 0.05 -0.04 0.05 -0.03 0.05 -0.04 0.04 -0.04 0.05 -0.04 0.05 -0.04 0.04 -0.05 0.05 -0.04 0.37 0.36 -0.05 0.06 -0.05 0.05 -0.06 0.05 -0.06 0.05 -0.05 0.05 -0.06 0.04 -0.06 0.05 -0.06 0.04 -0.06 0.04 -0.06 0.04 -0.06 0.04 -0.07 0.03 -0.06 0.04 -0.06 0.03 -0.07 0.03 -0.07 0.03 -0.06 0.03 -0.07 0.02 -0.07 0.02 -0.07 0.03 -0.07 0.02 -0.07 0.01 -0.07 0.02 -0.08 0.02 -0.07 0.01 -0.07 0.01 -0.08 0.01 -0.07 0.01 -0.08 0 -0.07 0.01 -0.08 0 -0.08 0 0 0zm0 0c-0.14,0 -0.26,-0.12 -0.26,-0.26 0,-0.15 0.12,-0.26 0.26,-0.26l0 0.52zm-1.51 -0.41l0.27 -0.44 0 0 0.04 0.02 0.03 0.02 0.04 0.02 0.03 0.01 0.04 0.02 0.03 0.02 0.04 0.01 0.04 0.02 0.03 0.02 0.04 0.01 0.04 0.01 0.03 0.02 0.04 0.01 0.04 0.01 0.04 0.01 0.03 0.01 0.04 0.01 0.04 0.01 0.04 0.01 0.04 0.01 0.04 0.01 0.04 0 0.04 0.01 0.04 0.01 0.04 0 0.05 0.01 0.04 0 0.04 0 0.04 0 0.05 0.01 0.04 0 0.04 0 0 0.52 -0.05 0 -0.05 0 -0.05 0 -0.05 -0.01 -0.05 0 -0.05 0 -0.05 -0.01 -0.05 0 -0.05 -0.01 -0.05 -0.01 -0.05 -0.01 -0.05 -0.01 -0.05 -0.01 -0.05 -0.01 -0.04 -0.01 -0.05 -0.01 -0.05 -0.01 -0.05 -0.02 -0.04 -0.01 -0.05 -0.02 -0.04 -0.01 -0.05 -0.02 -0.05 -0.02 -0.04 -0.02 -0.04 -0.02 -0.05 -0.02 -0.04 -0.02 -0.05 -0.02 -0.04 -0.02 -0.04 -0.03 -0.04 -0.02 -0.05 -0.03 0 0zm0 0c-0.12,-0.07 -0.16,-0.23 -0.09,-0.36 0.08,-0.12 0.24,-0.16 0.36,-0.08l-0.27 0.44zm-1.05 -1.09l0.46 -0.25 0 0 0.02 0.03 0.02 0.04 0.02 0.03 0.02 0.04 0.03 0.03 0.02 0.03 0.02 0.04 0.02 0.03 0.03 0.03 0.02 0.03 0.03 0.03 0.02 0.03 0.03 0.03 0.02 0.03 0.03 0.03 0.02 0.03 0.03 0.02 0.03 0.03 0.03 0.03 0.03 0.02 0.03 0.03 0.02 0.03 0.03 0.02 0.03 0.03 0.04 0.02 0.03 0.02 0.03 0.03 0.03 0.02 0.03 0.02 0.04 0.02 0.03 0.03 0.03 0.02 -0.27 0.44 -0.04 -0.02 -0.04 -0.03 -0.04 -0.02 -0.04 -0.03 -0.04 -0.03 -0.04 -0.03 -0.03 -0.03 -0.04 -0.02 -0.04 -0.03 -0.04 -0.04 -0.03 -0.03 -0.04 -0.03 -0.03 -0.03 -0.04 -0.03 -0.03 -0.04 -0.03 -0.03 -0.04 -0.03 -0.03 -0.04 -0.03 -0.04 -0.03 -0.03 -0.03 -0.04 -0.03 -0.04 -0.03 -0.03 -0.03 -0.04 -0.03 -0.04 -0.02 -0.04 -0.03 -0.04 -0.03 -0.04 -0.02 -0.04 -0.03 -0.04 -0.02 -0.04 -0.03 -0.05 0 0zm0 0c-0.07,-0.12 -0.02,-0.28 0.1,-0.35 0.13,-0.07 0.29,-0.03 0.36,0.1l-0.46 0.25zm-0.38 -1.58l0.52 0 0 0 0 0.05 0 0.05 0.01 0.05 0 0.04 0 0.05 0 0.04 0.01 0.05 0 0.05 0.01 0.04 0 0.04 0.01 0.05 0.01 0.04 0.01 0.04 0 0.05 0.01 0.04 0.01 0.04 0.01 0.04 0.01 0.04 0.02 0.04 0.01 0.04 0.01 0.04 0.01 0.04 0.02 0.04 0.01 0.04 0.02 0.03 0.01 0.04 0.02 0.04 0.02 0.04 0.01 0.03 0.02 0.04 0.02 0.03 0.02 0.04 -0.46 0.25 -0.02 -0.04 -0.02 -0.04 -0.03 -0.05 -0.02 -0.04 -0.02 -0.05 -0.02 -0.04 -0.02 -0.05 -0.02 -0.04 -0.01 -0.05 -0.02 -0.05 -0.02 -0.05 -0.01 -0.04 -0.02 -0.05 -0.01 -0.05 -0.01 -0.05 -0.02 -0.05 -0.01 -0.05 -0.01 -0.05 -0.01 -0.05 -0.01 -0.05 -0.01 -0.05 0 -0.05 -0.01 -0.05 -0.01 -0.06 0 -0.05 -0.01 -0.05 0 -0.06 -0.01 -0.05 0 -0.05 0 -0.06 0 -0.05 0 -0.06 0 0zm0 0c0,-0.14 0.12,-0.26 0.26,-0.26 0.15,0 0.26,0.12 0.26,0.26l-0.52 0zm0.84 -2.21l0.38 0.37 0 0 -0.04 0.04 -0.05 0.05 -0.04 0.05 -0.03 0.04 -0.04 0.05 -0.04 0.05 -0.03 0.05 -0.04 0.05 -0.03 0.05 -0.03 0.06 -0.03 0.05 -0.02 0.05 -0.03 0.06 -0.03 0.05 -0.02 0.06 -0.02 0.05 -0.02 0.06 -0.02 0.06 -0.02 0.06 -0.02 0.06 -0.01 0.06 -0.02 0.06 -0.01 0.07 -0.01 0.06 -0.01 0.06 -0.01 0.07 -0.01 0.07 -0.01 0.06 0 0.07 0 0.07 -0.01 0.07 0 0.07 -0.52 0 0 -0.08 0 -0.08 0.01 -0.08 0 -0.08 0.01 -0.08 0.01 -0.08 0.01 -0.07 0.01 -0.08 0.01 -0.07 0.02 -0.08 0.02 -0.07 0.02 -0.08 0.02 -0.07 0.02 -0.07 0.02 -0.07 0.03 -0.07 0.03 -0.07 0.02 -0.07 0.03 -0.07 0.04 -0.06 0.03 -0.07 0.04 -0.06 0.03 -0.07 0.04 -0.06 0.04 -0.06 0.05 -0.06 0.04 -0.06 0.04 -0.06 0.05 -0.06 0.05 -0.06 0.05 -0.05 0.05 -0.06 0 0zm0 0c0.1,-0.1 0.27,-0.1 0.37,0 0.11,0.1 0.11,0.26 0.01,0.37l-0.38 -0.37zm2.1 -0.88l0 0.53 0 0 -0.07 0 -0.06 0 -0.07 0.01 -0.06 0 -0.06 0.01 -0.06 0 -0.06 0.01 -0.06 0.01 -0.06 0.02 -0.06 0.01 -0.05 0.01 -0.06 0.02 -0.05 0.02 -0.06 0.02 -0.05 0.02 -0.06 0.02 -0.05 0.02 -0.05 0.03 -0.05 0.02 -0.05 0.03 -0.05 0.03 -0.05 0.03 -0.05 0.03 -0.05 0.03 -0.05 0.04 -0.05 0.03 -0.04 0.04 -0.05 0.04 -0.05 0.04 -0.04 0.04 -0.05 0.04 -0.04 0.05 -0.38 -0.37 0.06 -0.05 0.05 -0.05 0.05 -0.05 0.06 -0.05 0.05 -0.05 0.06 -0.04 0.06 -0.05 0.06 -0.04 0.06 -0.04 0.06 -0.04 0.06 -0.04 0.06 -0.03 0.07 -0.03 0.06 -0.04 0.06 -0.03 0.07 -0.03 0.07 -0.02 0.06 -0.03 0.07 -0.02 0.07 -0.02 0.07 -0.02 0.07 -0.02 0.07 -0.02 0.07 -0.01 0.07 -0.01 0.08 -0.01 0.07 -0.01 0.07 -0.01 0.08 -0.01 0.07 0 0.08 0 0.08 -0.01 0 0zm0 0c0.14,0 0.26,0.12 0.26,0.27 0,0.14 -0.12,0.26 -0.26,0.26l0 -0.53zm-0.57 1.07l-0.32 -0.42 0 0 0.03 -0.02 0.02 -0.02 0.03 -0.01 0.02 -0.02 0.03 -0.02 0.02 -0.01 0.03 -0.02 0.03 -0.01 0.02 -0.01 0.03 -0.02 0.03 -0.01 0.02 -0.01 0.03 -0.01 0.03 -0.01 0.03 -0.01 0.03 -0.01 0.02 -0.01 0.03 -0.01 0.03 -0.01 0.03 0 0.03 -0.01 0.03 -0.01 0.03 0 0.03 -0.01 0.03 0 0.03 0 0.03 -0.01 0.03 0 0.03 0 0.03 0 0.03 0 0.03 0 0 0.52 -0.02 0 -0.02 0 -0.02 0 -0.02 0 -0.02 0 -0.02 0.01 -0.02 0 -0.02 0 -0.02 0.01 -0.02 0 -0.02 0 -0.02 0.01 -0.02 0 -0.02 0.01 -0.02 0 -0.01 0.01 -0.02 0 -0.02 0.01 -0.02 0.01 -0.01 0 -0.02 0.01 -0.02 0.01 -0.01 0.01 -0.02 0 -0.02 0.01 -0.01 0.01 -0.02 0.01 -0.02 0.01 -0.01 0.01 -0.02 0.01 -0.01 0.01 -0.02 0.02 0 0zm0 0c-0.11,0.08 -0.28,0.06 -0.36,-0.05 -0.09,-0.12 -0.07,-0.28 0.04,-0.37l0.32 0.42zm-0.41 0.64l-0.49 -0.17 0 0 0.01 -0.03 0.01 -0.04 0.02 -0.03 0.01 -0.04 0.01 -0.03 0.02 -0.04 0.01 -0.03 0.02 -0.03 0.01 -0.03 0.02 -0.04 0.02 -0.03 0.01 -0.03 0.02 -0.03 0.02 -0.03 0.01 -0.02 0.02 -0.03 0.02 -0.03 0.02 -0.03 0.02 -0.02 0.02 -0.03 0.02 -0.03 0.02 -0.02 0.02 -0.03 0.02 -0.02 0.02 -0.02 0.02 -0.03 0.03 -0.02 0.02 -0.02 0.02 -0.02 0.03 -0.02 0.02 -0.02 0.02 -0.02 0.32 0.42 -0.01 0.01 -0.02 0.01 -0.01 0.01 -0.01 0.01 -0.02 0.02 -0.01 0.01 -0.02 0.02 -0.01 0.01 -0.01 0.02 -0.02 0.01 -0.01 0.02 -0.02 0.02 -0.01 0.01 -0.01 0.02 -0.02 0.02 -0.01 0.02 -0.01 0.02 -0.01 0.02 -0.02 0.02 -0.01 0.03 -0.01 0.02 -0.01 0.02 -0.02 0.03 -0.01 0.02 -0.01 0.03 -0.01 0.02 -0.01 0.03 -0.01 0.03 -0.02 0.03 -0.01 0.02 -0.01 0.03 -0.01 0.03 0 0zm0 0c-0.05,0.14 -0.19,0.21 -0.33,0.17 -0.14,-0.05 -0.21,-0.2 -0.16,-0.34l0.49 0.17zm-0.17 1.38l-0.52 0 0 0 0 -0.06 0 -0.06 0 -0.06 0 -0.06 0 -0.05 0 -0.06 0.01 -0.05 0 -0.06 0 -0.05 0.01 -0.05 0 -0.06 0 -0.05 0.01 -0.05 0 -0.05 0.01 -0.05 0.01 -0.04 0 -0.05 0.01 -0.05 0.01 -0.05 0 -0.04 0.01 -0.05 0.01 -0.04 0.01 -0.04 0.01 -0.05 0.01 -0.04 0.01 -0.04 0.01 -0.04 0.01 -0.04 0.01 -0.04 0.01 -0.04 0.01 -0.04 0.02 -0.04 0.49 0.17 -0.01 0.03 -0.01 0.03 -0.01 0.04 -0.01 0.03 -0.01 0.03 0 0.03 -0.01 0.04 -0.01 0.04 -0.01 0.03 -0.01 0.04 0 0.04 -0.01 0.04 -0.01 0.04 0 0.04 -0.01 0.04 0 0.04 -0.01 0.04 0 0.05 -0.01 0.04 0 0.05 -0.01 0.05 0 0.04 0 0.05 -0.01 0.05 0 0.05 0 0.05 0 0.05 -0.01 0.06 0 0.05 0 0.05 0 0.06 0 0.06 0 0zm0 0c0,0.14 -0.12,0.26 -0.26,0.26 -0.14,0 -0.26,-0.12 -0.26,-0.26l0.52 0zm0.16 1.39l-0.5 0.16 0 0 -0.01 -0.03 -0.01 -0.04 -0.01 -0.04 -0.01 -0.04 -0.01 -0.03 -0.01 -0.04 -0.01 -0.05 -0.01 -0.04 -0.01 -0.04 -0.01 -0.04 -0.01 -0.05 0 -0.04 -0.01 -0.05 -0.01 -0.04 0 -0.05 -0.01 -0.05 0 -0.05 -0.01 -0.05 0 -0.05 -0.01 -0.05 0 -0.05 -0.01 -0.06 0 -0.05 0 -0.05 0 -0.06 -0.01 -0.06 0 -0.05 0 -0.06 0 -0.06 0 -0.06 0 -0.06 0 -0.06 0.52 0 0 0.05 0 0.06 0 0.06 0 0.06 0.01 0.05 0 0.05 0 0.06 0 0.05 0 0.05 0.01 0.05 0 0.05 0.01 0.05 0 0.05 0 0.04 0.01 0.05 0 0.04 0.01 0.04 0 0.05 0.01 0.04 0.01 0.04 0 0.04 0.01 0.03 0 0.04 0.01 0.04 0.01 0.03 0.01 0.04 0 0.03 0.01 0.03 0.01 0.03 0.01 0.03 0.01 0.03 0.01 0.03 0 0zm0 0c0.04,0.13 -0.03,0.28 -0.17,0.33 -0.13,0.04 -0.28,-0.03 -0.33,-0.17l0.5 -0.16zm0.4 0.61l-0.31 0.42 0 0 -0.02 -0.02 -0.03 -0.02 -0.02 -0.02 -0.03 -0.02 -0.02 -0.02 -0.02 -0.02 -0.02 -0.02 -0.03 -0.02 -0.02 -0.03 -0.02 -0.02 -0.02 -0.03 -0.02 -0.02 -0.02 -0.03 -0.02 -0.02 -0.02 -0.03 -0.02 -0.03 -0.02 -0.02 -0.01 -0.03 -0.02 -0.03 -0.02 -0.03 -0.01 -0.03 -0.02 -0.03 -0.02 -0.03 -0.01 -0.03 -0.02 -0.03 -0.01 -0.03 -0.01 -0.04 -0.02 -0.03 -0.01 -0.03 -0.01 -0.04 -0.02 -0.03 -0.01 -0.04 0.5 -0.16 0.01 0.02 0.01 0.03 0.01 0.03 0.01 0.02 0.01 0.03 0.01 0.02 0.01 0.03 0.01 0.02 0.01 0.02 0.01 0.03 0.02 0.02 0.01 0.02 0.01 0.02 0.01 0.02 0.01 0.02 0.02 0.02 0.01 0.02 0.01 0.02 0.02 0.01 0.01 0.02 0.01 0.02 0.02 0.01 0.01 0.02 0.01 0.02 0.02 0.01 0.01 0.02 0.02 0.01 0.01 0.01 0.02 0.02 0.01 0.01 0.02 0.01 0.01 0.01 0 0zm0 0c0.12,0.09 0.14,0.25 0.06,0.37 -0.09,0.11 -0.25,0.14 -0.37,0.05l0.31 -0.42zm0.61 0.19l0 0.52 0 0 -0.03 0 -0.03 0 -0.04 0 -0.03 0 -0.03 0 -0.03 -0.01 -0.03 0 -0.03 0 -0.03 -0.01 -0.03 0 -0.03 -0.01 -0.03 -0.01 -0.03 0 -0.03 -0.01 -0.03 -0.01 -0.03 -0.01 -0.03 -0.01 -0.03 -0.01 -0.02 -0.01 -0.03 -0.01 -0.03 -0.01 -0.03 -0.01 -0.02 -0.02 -0.03 -0.01 -0.03 -0.01 -0.02 -0.02 -0.03 -0.01 -0.03 -0.02 -0.02 -0.01 -0.03 -0.02 -0.02 -0.02 -0.03 -0.02 0.31 -0.42 0.02 0.01 0.02 0.01 0.01 0.02 0.02 0.01 0.02 0.01 0.01 0.01 0.02 0.01 0.02 0 0.01 0.01 0.02 0.01 0.02 0.01 0.02 0.01 0.02 0 0.01 0.01 0.02 0.01 0.02 0 0.02 0.01 0.02 0 0.02 0.01 0.02 0 0.02 0.01 0.02 0 0.02 0.01 0.02 0 0.02 0 0.02 0 0.02 0.01 0.02 0 0.02 0 0.02 0 0.03 0 0.02 0 0 0zm0 0c0.14,0 0.26,0.12 0.26,0.26 0,0.15 -0.12,0.26 -0.26,0.26l0 -0.52zm0.81 -0.44l0.43 0.29 0 0 -0.03 0.04 -0.03 0.04 -0.02 0.04 -0.04 0.03 -0.03 0.04 -0.03 0.03 -0.03 0.04 -0.03 0.03 -0.04 0.03 -0.03 0.03 -0.04 0.03 -0.03 0.03 -0.04 0.02 -0.04 0.03 -0.04 0.02 -0.04 0.02 -0.04 0.02 -0.04 0.02 -0.04 0.02 -0.04 0.02 -0.04 0.01 -0.05 0.02 -0.04 0.01 -0.04 0.01 -0.05 0.01 -0.04 0.01 -0.05 0.01 -0.05 0 -0.04 0.01 -0.05 0 -0.04 0 -0.05 0 0 -0.52 0.03 0 0.03 0 0.03 0 0.04 -0.01 0.03 0 0.02 -0.01 0.03 0 0.03 -0.01 0.03 0 0.03 -0.01 0.02 -0.01 0.03 -0.01 0.03 -0.01 0.02 -0.01 0.03 -0.01 0.02 -0.02 0.03 -0.01 0.02 -0.02 0.02 -0.01 0.03 -0.02 0.02 -0.02 0.02 -0.01 0.03 -0.02 0.02 -0.02 0.02 -0.02 0.02 -0.03 0.02 -0.02 0.03 -0.03 0.02 -0.02 0.02 -0.03 0.02 -0.03 0.02 -0.03 0 0.01zm0 -0.01c0.08,-0.11 0.25,-0.14 0.36,-0.06 0.12,0.08 0.15,0.24 0.07,0.36l-0.43 -0.3zm0.34 -1.79l0.52 0 0 0 0 0.09 0 0.08 0 0.09 0 0.08 -0.01 0.08 0 0.08 -0.01 0.08 0 0.08 -0.01 0.08 -0.01 0.07 -0.01 0.07 0 0.08 -0.01 0.07 -0.02 0.06 -0.01 0.07 -0.01 0.07 -0.01 0.06 -0.02 0.07 -0.01 0.06 -0.02 0.06 -0.02 0.06 -0.01 0.05 -0.02 0.06 -0.02 0.05 -0.02 0.06 -0.02 0.05 -0.03 0.05 -0.02 0.05 -0.03 0.05 -0.02 0.04 -0.03 0.05 -0.03 0.04 -0.43 -0.29 0.02 -0.03 0.02 -0.03 0.01 -0.03 0.02 -0.04 0.02 -0.03 0.02 -0.04 0.01 -0.04 0.02 -0.04 0.01 -0.04 0.02 -0.05 0.01 -0.04 0.02 -0.05 0.01 -0.05 0.01 -0.05 0.01 -0.06 0.02 -0.05 0.01 -0.06 0.01 -0.06 0.01 -0.06 0.01 -0.06 0 -0.07 0.01 -0.06 0.01 -0.07 0 -0.07 0.01 -0.07 0 -0.08 0.01 -0.07 0 -0.08 0 -0.08 0.01 -0.08 0 -0.08 0 -0.08 0 0zm0 0c0,-0.15 0.11,-0.26 0.26,-0.26 0.14,0 0.26,0.11 0.26,0.26l-0.52 0zm-0.15 -1.37l0.49 -0.17 0 0 0.01 0.03 0.02 0.04 0.01 0.04 0.01 0.03 0.01 0.04 0.01 0.04 0 0.04 0.01 0.04 0.01 0.05 0.01 0.04 0.01 0.04 0 0.04 0.01 0.05 0.01 0.05 0 0.04 0.01 0.05 0 0.05 0.01 0.05 0 0.05 0.01 0.05 0 0.05 0 0.05 0.01 0.06 0 0.05 0 0.06 0.01 0.05 0 0.06 0 0.06 0 0.06 0 0.06 0 0.06 0 0.06 -0.52 0 0 -0.06 0 -0.06 0 -0.06 -0.01 -0.05 0 -0.06 0 -0.05 0 -0.05 0 -0.05 -0.01 -0.05 0 -0.05 0 -0.05 0 -0.05 -0.01 -0.05 0 -0.04 -0.01 -0.05 0 -0.04 -0.01 -0.04 0 -0.05 -0.01 -0.04 0 -0.03 -0.01 -0.04 -0.01 -0.04 0 -0.04 -0.01 -0.03 -0.01 -0.04 0 -0.03 -0.01 -0.03 -0.01 -0.03 -0.01 -0.03 -0.01 -0.03 -0.01 -0.03 0 -0.02 0 0zm0 0c-0.05,-0.14 0.02,-0.29 0.16,-0.34 0.14,-0.04 0.29,0.03 0.33,0.17l-0.49 0.17zm-0.4 -0.6l0.31 -0.42 0 0 0.02 0.01 0.03 0.02 0.02 0.02 0.03 0.02 0.02 0.03 0.02 0.02 0.02 0.02 0.03 0.02 0.02 0.02 0.02 0.03 0.02 0.02 0.02 0.03 0.02 0.02 0.02 0.03 0.02 0.02 0.02 0.03 0.01 0.03 0.02 0.03 0.02 0.02 0.02 0.03 0.01 0.03 0.02 0.03 0.01 0.03 0.02 0.03 0.01 0.03 0.02 0.03 0.01 0.03 0.01 0.04 0.02 0.03 0.01 0.03 0.01 0.03 0.01 0.04 -0.49 0.17 -0.01 -0.03 -0.01 -0.03 -0.01 -0.02 -0.01 -0.03 -0.01 -0.02 -0.01 -0.03 -0.01 -0.02 -0.01 -0.02 -0.02 -0.02 -0.01 -0.03 -0.01 -0.02 -0.01 -0.02 -0.01 -0.02 -0.01 -0.02 -0.02 -0.02 -0.01 -0.02 -0.01 -0.01 -0.01 -0.02 -0.02 -0.02 -0.01 -0.01 -0.01 -0.02 -0.02 -0.02 -0.01 -0.01 -0.01 -0.02 -0.02 -0.01 -0.01 -0.02 -0.02 -0.01 -0.01 -0.01 -0.02 -0.02 -0.01 -0.01 -0.02 -0.01 -0.01 -0.01 0 0zm0 0c-0.12,-0.09 -0.14,-0.25 -0.06,-0.37 0.09,-0.11 0.25,-0.14 0.37,-0.05l-0.31 0.42zm-0.61 -0.19l0 -0.52 0 0 0.04 0 0.03 0 0.03 0 0.03 0 0.03 0 0.03 0.01 0.03 0 0.03 0 0.03 0.01 0.03 0 0.03 0.01 0.03 0.01 0.03 0 0.03 0.01 0.03 0.01 0.03 0.01 0.03 0.01 0.03 0.01 0.02 0.01 0.03 0.01 0.03 0.01 0.03 0.01 0.02 0.02 0.03 0.01 0.03 0.01 0.02 0.02 0.03 0.01 0.03 0.02 0.02 0.01 0.03 0.02 0.02 0.02 0.03 0.02 -0.31 0.42 -0.02 -0.01 -0.01 -0.01 -0.02 -0.02 -0.02 -0.01 -0.01 -0.01 -0.02 -0.01 -0.02 0 -0.02 -0.01 -0.01 -0.01 -0.02 -0.01 -0.02 -0.01 -0.02 -0.01 -0.01 0 -0.02 -0.01 -0.02 -0.01 -0.02 0 -0.02 -0.01 -0.02 0 -0.02 -0.01 -0.01 0 -0.02 -0.01 -0.02 0 -0.02 0 -0.02 -0.01 -0.03 0 -0.02 0 -0.02 -0.01 -0.02 0 -0.02 0 -0.02 0 -0.02 0 -0.03 0 0 0zm0 0c-0.14,0 -0.26,-0.12 -0.26,-0.26 0,-0.15 0.12,-0.26 0.26,-0.26l0 0.52zm7.91 -0.22l-2.67 0 0 -0.52 2.67 0 0.26 0.26 -0.26 0.26zm0 -0.52c0.14,0 0.26,0.12 0.26,0.26 0,0.15 -0.12,0.26 -0.26,0.26l0 -0.52zm-0.26 0.6l0 -0.34 0.52 0 0 0.34 -0.26 0.26 -0.26 -0.26zm0.52 0c0,0.14 -0.12,0.26 -0.26,0.26 -0.14,0 -0.26,-0.12 -0.26,-0.26l0.52 0zm-0.8 -0.26l0.54 0 0 0.52 -0.54 0 0 0 0 -0.52zm0 0.52c-0.15,0 -0.26,-0.12 -0.26,-0.26 0,-0.15 0.11,-0.26 0.26,-0.26l0 0.52zm0.02 -0.02l-0.4 -0.33 0 0 0.01 -0.01 0 -0.01 0.01 -0.01 0.01 -0.01 0.01 -0.01 0.01 -0.01 0.02 -0.01 0.01 -0.01 0.01 0 0.01 -0.01 0.01 -0.01 0.01 -0.01 0.02 -0.01 0.01 0 0.01 -0.01 0.01 0 0.01 -0.01 0.02 0 0.01 -0.01 0.01 0 0.02 -0.01 0.01 0 0.01 0 0.01 0 0.02 -0.01 0.01 0 0.01 0 0.02 0 0.01 0 0.01 0 0.02 0 0.01 0 0 0.52 0 0 0 0 -0.01 0 0 0 0 0 0 0 0 0 0 0 0 0 0 0 0.01 0 0 0 0 0 0 0 0 0 0 0 0 0 0 0 0.01 0 0 -0.01 0 0 0 0 0 0 0 0 0.01 0 0 0 0 0 0 0 0 -0.01 0 0 0 0 0 0 0 0zm0 0c-0.09,0.11 -0.25,0.13 -0.37,0.04 -0.11,-0.09 -0.12,-0.26 -0.03,-0.37l0.4 0.33zm0 0.08l-0.53 0 0 0 0 -0.02 0 -0.01 0 -0.01 0 -0.02 0 -0.01 0.01 -0.02 0 -0.01 0 -0.01 0 -0.01 0 -0.02 0 -0.01 0.01 -0.01 0 -0.01 0 -0.02 0.01 -0.01 0 -0.01 0 -0.02 0.01 -0.01 0 -0.01 0 -0.01 0.01 -0.02 0.01 -0.01 0 -0.01 0.01 -0.01 0 -0.02 0.01 -0.01 0.01 -0.01 0 -0.01 0.01 -0.01 0.01 -0.02 0.01 -0.01 0.01 -0.01 0.4 0.33 0 0 0 0 0.01 0 0 0 0 0 0 0 0 -0.01 0 0.01 0 0 0 0 0 0 0 0 0 0 0 0 -0.01 0 0 0 0 0.01 0 0 0 0 0 0 0 0.01 0 0 0 0.01 0 0 0 0 0 0.01 0 0.01 0 0 0 0.01 0 0 0 0.01 0 0.01 0 0zm0 0c0,0.14 -0.12,0.26 -0.27,0.26 -0.14,0 -0.26,-0.12 -0.26,-0.26l0.53 0zm-0.53 2.98l0 -2.98 0.53 0 0 2.98 0 0 -0.53 0zm0.53 0c0,0.15 -0.12,0.26 -0.27,0.26 -0.14,0 -0.26,-0.11 -0.26,-0.26l0.53 0zm0.25 0.79l-0.37 0.36 0 0 -0.03 -0.02 -0.02 -0.03 -0.03 -0.03 -0.02 -0.03 -0.02 -0.03 -0.02 -0.03 -0.03 -0.03 -0.01 -0.03 -0.02 -0.03 -0.02 -0.04 -0.02 -0.03 -0.01 -0.03 -0.02 -0.04 -0.01 -0.03 -0.02 -0.04 -0.01 -0.04 -0.01 -0.03 -0.01 -0.04 -0.01 -0.04 -0.01 -0.04 -0.01 -0.03 -0.01 -0.04 -0.01 -0.04 0 -0.04 -0.01 -0.04 0 -0.04 -0.01 -0.04 0 -0.05 0 -0.04 -0.01 -0.04 0 -0.04 0 -0.05 0.53 0 0 0.04 0 0.03 0 0.03 0 0.04 0 0.03 0.01 0.03 0 0.03 0 0.03 0.01 0.03 0 0.03 0.01 0.03 0.01 0.02 0 0.03 0.01 0.03 0.01 0.02 0.01 0.03 0 0.02 0.01 0.02 0.01 0.02 0.01 0.03 0.01 0.02 0.01 0.02 0.01 0.02 0.01 0.02 0.02 0.02 0.01 0.02 0.01 0.01 0.01 0.02 0.02 0.02 0.01 0.02 0.02 0.01 0.01 0.02 0 0zm0 0c0.1,0.1 0.1,0.27 0,0.37 -0.11,0.1 -0.27,0.1 -0.37,-0.01l0.37 -0.36zm0.72 0.26l0 0.52 0 0 -0.04 0 -0.04 0 -0.04 0 -0.04 -0.01 -0.04 0 -0.04 0 -0.04 -0.01 -0.03 0 -0.04 -0.01 -0.04 -0.01 -0.04 -0.01 -0.03 -0.01 -0.04 -0.01 -0.04 -0.01 -0.03 -0.01 -0.04 -0.01 -0.03 -0.01 -0.03 -0.02 -0.04 -0.01 -0.03 -0.02 -0.03 -0.02 -0.04 -0.01 -0.03 -0.02 -0.03 -0.02 -0.03 -0.02 -0.03 -0.02 -0.03 -0.02 -0.03 -0.03 -0.02 -0.02 -0.03 -0.03 -0.03 -0.02 -0.02 -0.03 0.37 -0.36 0.02 0.01 0.01 0.02 0.02 0.01 0.02 0.02 0.01 0.01 0.02 0.01 0.02 0.02 0.02 0.01 0.02 0.01 0.01 0.01 0.02 0.01 0.02 0.01 0.02 0.01 0.02 0.01 0.03 0.01 0.02 0.01 0.02 0.01 0.02 0 0.03 0.01 0.02 0.01 0.02 0 0.03 0.01 0.02 0 0.03 0.01 0.03 0 0.02 0.01 0.03 0 0.03 0 0.03 0 0.03 0.01 0.03 0 0.03 0 0 0zm0 0c0.15,0 0.26,0.11 0.26,0.26 0,0.14 -0.11,0.26 -0.26,0.26l0 -0.52zm0.65 -0.16l0.25 0.46 0 0 -0.03 0.02 -0.02 0.01 -0.03 0.01 -0.02 0.01 -0.03 0.02 -0.03 0.01 -0.02 0.01 -0.03 0.01 -0.03 0.01 -0.02 0.01 -0.03 0.01 -0.03 0.01 -0.03 0 -0.02 0.01 -0.03 0.01 -0.03 0.01 -0.03 0 -0.03 0.01 -0.02 0 -0.03 0.01 -0.03 0.01 -0.03 0 -0.03 0 -0.03 0.01 -0.03 0 -0.03 0 -0.03 0.01 -0.03 0 -0.03 0 -0.03 0 -0.03 0 -0.03 0 0 -0.52 0.03 0 0.02 0 0.02 -0.01 0.02 0 0.02 0 0.03 0 0.02 0 0.02 0 0.02 -0.01 0.02 0 0.02 0 0.03 -0.01 0.02 0 0.02 0 0.02 -0.01 0.02 0 0.02 -0.01 0.02 0 0.02 -0.01 0.02 0 0.02 -0.01 0.02 -0.01 0.01 0 0.02 -0.01 0.02 -0.01 0.02 -0.01 0.02 0 0.02 -0.01 0.02 -0.01 0.01 -0.01 0.02 -0.01 0.02 -0.01 0 0zm0 0c0.13,-0.07 0.29,-0.02 0.36,0.11 0.06,0.12 0.02,0.28 -0.11,0.35l-0.25 -0.46zm0.31 -0.34l0.47 0.24 0 0 -0.02 0.02 -0.01 0.02 -0.01 0.02 -0.01 0.03 -0.02 0.02 -0.01 0.02 -0.01 0.02 -0.02 0.02 -0.01 0.02 -0.02 0.02 -0.01 0.02 -0.02 0.02 -0.01 0.02 -0.02 0.02 -0.01 0.02 -0.02 0.02 -0.02 0.01 -0.01 0.02 -0.02 0.02 -0.02 0.01 -0.02 0.02 -0.01 0.02 -0.02 0.01 -0.02 0.02 -0.02 0.01 -0.02 0.02 -0.02 0.01 -0.02 0.01 -0.02 0.02 -0.02 0.01 -0.02 0.01 -0.02 0.01 -0.25 -0.46 0.01 -0.01 0.01 0 0.01 -0.01 0.01 0 0.01 -0.01 0.01 -0.01 0.01 -0.01 0.01 0 0.01 -0.01 0.01 -0.01 0.01 -0.01 0.01 -0.01 0.01 -0.01 0.01 -0.01 0.01 -0.01 0.01 -0.01 0.01 -0.01 0.01 -0.01 0.01 -0.01 0.01 -0.01 0.01 -0.02 0.01 -0.01 0.01 -0.01 0.01 -0.01 0.01 -0.02 0.01 -0.01 0.01 -0.02 0 -0.01 0.01 -0.02 0.01 -0.01 0.01 -0.02 0.01 -0.01 0 0zm0 0c0.07,-0.13 0.22,-0.18 0.35,-0.12 0.13,0.07 0.18,0.23 0.12,0.36l-0.47 -0.24zm0.13 -0.68l0.53 0 0 0 0 0.03 0 0.03 0 0.03 -0.01 0.04 0 0.03 0 0.03 0 0.03 0 0.03 -0.01 0.03 0 0.03 0 0.03 -0.01 0.03 0 0.03 -0.01 0.03 0 0.03 -0.01 0.03 0 0.03 -0.01 0.03 -0.01 0.02 -0.01 0.03 0 0.03 -0.01 0.03 -0.01 0.02 -0.01 0.03 -0.01 0.03 -0.01 0.02 -0.01 0.03 -0.01 0.03 -0.01 0.02 -0.01 0.03 -0.01 0.02 -0.01 0.03 -0.47 -0.24 0.01 -0.02 0 -0.02 0.01 -0.01 0.01 -0.02 0.01 -0.02 0 -0.01 0.01 -0.02 0.01 -0.02 0 -0.02 0.01 -0.01 0 -0.02 0.01 -0.02 0 -0.02 0.01 -0.02 0 -0.02 0.01 -0.03 0 -0.02 0.01 -0.02 0 -0.02 0 -0.02 0.01 -0.03 0 -0.02 0 -0.02 0 -0.03 0.01 -0.02 0 -0.03 0 -0.02 0 -0.03 0 -0.02 0 -0.03 0 -0.03 0 -0.02 0 0zm0 0c0,-0.15 0.12,-0.27 0.26,-0.27 0.15,0 0.27,0.12 0.27,0.27l-0.53 0zm0.53 -2.3l0 2.3 -0.53 0 0 -2.3 0 0 0.53 0zm-0.53 0c0,-0.14 0.12,-0.26 0.26,-0.26 0.15,0 0.27,0.12 0.27,0.26l-0.53 0zm-0.12 -0.48l0.39 -0.35 0 0 0.02 0.02 0.01 0.02 0.02 0.03 0.01 0.02 0.02 0.02 0.01 0.02 0.02 0.02 0.01 0.03 0.01 0.02 0.01 0.03 0.01 0.02 0.01 0.02 0.01 0.03 0.01 0.02 0.01 0.03 0.01 0.03 0.01 0.02 0 0.03 0.01 0.03 0 0.02 0.01 0.03 0 0.03 0.01 0.03 0 0.03 0.01 0.02 0 0.03 0 0.03 0 0.03 0.01 0.03 0 0.03 0 0.03 0 0.03 -0.53 0 0 -0.02 0 -0.02 0 -0.03 0 -0.02 0 -0.02 0 -0.02 0 -0.02 -0.01 -0.02 0 -0.02 0 -0.02 -0.01 -0.02 0 -0.01 0 -0.02 -0.01 -0.02 0 -0.01 0 -0.02 -0.01 -0.01 0 -0.01 -0.01 -0.02 0 -0.01 -0.01 -0.01 0 -0.02 -0.01 -0.01 0 -0.01 -0.01 -0.01 -0.01 -0.01 0 -0.01 -0.01 -0.01 0 -0.01 -0.01 0 -0.01 -0.01 0 -0.01 0 0zm0 0c-0.1,-0.11 -0.09,-0.27 0.02,-0.37 0.11,-0.1 0.27,-0.09 0.37,0.02l-0.39 0.35zm-0.32 -0.13l0 -0.52 0 0 0.03 0 0.02 0 0.03 0 0.02 0 0.03 0 0.02 0.01 0.03 0 0.02 0 0.03 0.01 0.02 0 0.02 0.01 0.03 0.01 0.02 0.01 0.03 0 0.02 0.01 0.02 0.01 0.02 0.01 0.03 0.01 0.02 0.01 0.02 0.02 0.02 0.01 0.02 0.01 0.02 0.02 0.02 0.01 0.02 0.01 0.02 0.02 0.02 0.02 0.02 0.01 0.02 0.02 0.02 0.02 0.01 0.02 0.02 0.01 -0.39 0.35 -0.01 -0.01 -0.01 -0.01 -0.01 0 0 -0.01 -0.01 -0.01 -0.01 -0.01 -0.01 0 -0.01 -0.01 0 0 -0.01 -0.01 -0.01 0 -0.01 -0.01 -0.01 0 -0.01 -0.01 0 0 -0.01 -0.01 -0.01 0 -0.01 0 -0.01 -0.01 -0.01 0 -0.01 0 -0.01 -0.01 -0.02 0 -0.01 0 -0.01 0 -0.01 -0.01 -0.01 0 -0.02 0 -0.01 0 -0.01 0 -0.02 0 -0.01 0 0 0zm0 0c-0.15,0 -0.26,-0.12 -0.26,-0.26 0,-0.15 0.11,-0.26 0.26,-0.26l0 0.52zm-0.08 -0.52l0.08 0 0 0.52 -0.08 0 -0.26 -0.26 0.26 -0.26zm0 0.52c-0.14,0 -0.26,-0.12 -0.26,-0.26 0,-0.15 0.12,-0.26 0.26,-0.26l0 0.52zm0.26 -0.6l0 0.34 -0.52 0 0 -0.34 0.26 -0.26 0.26 0.26zm-0.52 0c0,-0.14 0.12,-0.26 0.26,-0.26 0.14,0 0.26,0.12 0.26,0.26l-0.52 0zm2.28 0.26l-2.02 0 0 -0.52 2.02 0 0.27 0.26 -0.27 0.26zm0 -0.52c0.15,0 0.27,0.12 0.27,0.26 0,0.15 -0.12,0.26 -0.27,0.26l0 -0.52zm-0.26 0.6l0 -0.34 0.53 0 0 0.34 -0.27 0.26 -0.26 -0.26zm0.53 0c0,0.14 -0.12,0.26 -0.27,0.26 -0.14,0 -0.26,-0.12 -0.26,-0.26l0.53 0zm-0.4 -0.26l0.13 0 0 0.52 -0.13 0 0 0 0 -0.52zm0 0.52c-0.15,0 -0.27,-0.12 -0.27,-0.26 0,-0.15 0.12,-0.26 0.27,-0.26l0 0.52zm-0.27 0.13l-0.43 -0.3 0 0 0.01 -0.02 0.02 -0.02 0.01 -0.02 0.02 -0.02 0.02 -0.02 0.01 -0.02 0.02 -0.01 0.02 -0.02 0.02 -0.02 0.02 -0.01 0.02 -0.02 0.02 -0.01 0.02 -0.02 0.03 -0.01 0.02 -0.01 0.02 -0.02 0.02 -0.01 0.03 -0.01 0.02 -0.01 0.02 -0.01 0.03 0 0.02 -0.01 0.03 -0.01 0.02 0 0.03 -0.01 0.02 0 0.03 -0.01 0.02 0 0.03 0 0.02 0 0.03 0 0.03 0 0 0.52 -0.02 0 -0.01 0 -0.01 0 -0.01 0 -0.02 0 -0.01 0 -0.01 0.01 -0.01 0 -0.01 0 -0.01 0 0 0.01 -0.01 0 -0.01 0 -0.01 0.01 -0.01 0 0 0 -0.01 0.01 -0.01 0 -0.01 0 0 0.01 -0.01 0 -0.01 0.01 0 0 -0.01 0.01 0 0 -0.01 0.01 -0.01 0.01 0 0.01 -0.01 0 -0.01 0.01 0 0.01 -0.01 0.01 0 0zm0 0c-0.08,0.12 -0.24,0.15 -0.36,0.07 -0.12,-0.08 -0.15,-0.25 -0.07,-0.37l0.43 0.3zm-0.12 0.45l-0.52 0 0 0 0 -0.03 0 -0.02 0 -0.03 0 -0.02 0 -0.03 0 -0.02 0.01 -0.03 0 -0.02 0 -0.03 0.01 -0.02 0 -0.03 0.01 -0.02 0 -0.03 0.01 -0.02 0 -0.02 0.01 -0.03 0.01 -0.02 0 -0.02 0.01 -0.03 0.01 -0.02 0.01 -0.02 0 -0.03 0.01 -0.02 0.01 -0.02 0.01 -0.02 0.02 -0.02 0.01 -0.02 0.01 -0.03 0.01 -0.02 0.01 -0.02 0.01 -0.02 0.02 -0.02 0.43 0.3 -0.01 0.01 0 0.01 -0.01 0.01 -0.01 0.01 0 0.01 -0.01 0.01 0 0.02 -0.01 0.01 0 0.01 -0.01 0.01 0 0.02 -0.01 0.01 0 0.01 -0.01 0.01 0 0.02 -0.01 0.01 0 0.02 0 0.01 -0.01 0.01 0 0.02 0 0.01 -0.01 0.02 0 0.02 0 0.01 0 0.02 0 0.01 0 0.02 -0.01 0.02 0 0.02 0 0.01 0 0.02 0 0.02 0 0zm0 0c0,0.15 -0.12,0.26 -0.26,0.26 -0.14,0 -0.26,-0.11 -0.26,-0.26l0.52 0zm-0.52 2.49l0 -2.49 0.52 0 0 2.49 0 0 -0.52 0zm0.52 0c0,0.14 -0.12,0.26 -0.26,0.26 -0.14,0 -0.26,-0.12 -0.26,-0.26l0.52 0zm-0.63 1.52l-0.35 -0.38 0 0 0.03 -0.03 0.02 -0.03 0.03 -0.02 0.03 -0.03 0.02 -0.03 0.02 -0.03 0.03 -0.03 0.02 -0.03 0.02 -0.03 0.02 -0.03 0.02 -0.04 0.02 -0.03 0.01 -0.03 0.02 -0.03 0.02 -0.04 0.01 -0.03 0.02 -0.04 0.01 -0.03 0.01 -0.04 0.01 -0.04 0.01 -0.04 0.01 -0.03 0.01 -0.04 0.01 -0.04 0 -0.05 0.01 -0.04 0.01 -0.04 0 -0.04 0 -0.05 0.01 -0.04 0 -0.05 0 -0.04 0.52 0 0 0.05 0 0.06 0 0.06 -0.01 0.05 0 0.06 -0.01 0.05 -0.01 0.06 -0.01 0.05 -0.01 0.05 -0.01 0.05 -0.01 0.06 -0.01 0.05 -0.02 0.05 -0.02 0.05 -0.01 0.05 -0.02 0.05 -0.02 0.04 -0.03 0.05 -0.02 0.05 -0.02 0.04 -0.03 0.05 -0.02 0.04 -0.03 0.05 -0.03 0.04 -0.03 0.04 -0.03 0.04 -0.04 0.04 -0.03 0.04 -0.03 0.04 -0.04 0.04 -0.04 0.04 -0.04 0.03 0 0zm0 0c-0.1,0.1 -0.27,0.09 -0.37,-0.01 -0.1,-0.11 -0.09,-0.27 0.02,-0.37l0.35 0.38zm-1.68 0.58l0 -0.52 0 0 0.06 0 0.05 0 0.05 -0.01 0.05 0 0.06 0 0.05 -0.01 0.05 -0.01 0.04 0 0.05 -0.01 0.05 -0.01 0.04 -0.01 0.05 -0.01 0.04 -0.01 0.05 -0.01 0.04 -0.01 0.04 -0.02 0.04 -0.01 0.04 -0.02 0.04 -0.01 0.04 -0.02 0.04 -0.02 0.03 -0.01 0.04 -0.02 0.03 -0.02 0.04 -0.02 0.03 -0.03 0.03 -0.02 0.04 -0.02 0.03 -0.02 0.03 -0.03 0.03 -0.03 0.03 -0.02 0.35 0.38 -0.04 0.04 -0.04 0.03 -0.04 0.04 -0.04 0.03 -0.05 0.03 -0.04 0.03 -0.05 0.03 -0.04 0.03 -0.05 0.03 -0.05 0.02 -0.05 0.03 -0.05 0.02 -0.05 0.02 -0.05 0.02 -0.05 0.02 -0.05 0.02 -0.05 0.02 -0.06 0.01 -0.05 0.02 -0.06 0.01 -0.06 0.02 -0.05 0.01 -0.06 0.01 -0.06 0.01 -0.06 0 -0.06 0.01 -0.06 0.01 -0.06 0 -0.06 0.01 -0.06 0 -0.07 0 -0.06 0 0 0zm0 0c-0.14,0 -0.26,-0.12 -0.26,-0.26 0,-0.15 0.12,-0.26 0.26,-0.26l0 0.52zm-1.3 -0.25l0.22 -0.48 0 0 0.02 0.01 0.03 0.02 0.03 0.01 0.03 0.01 0.03 0.01 0.03 0.01 0.03 0.01 0.03 0.01 0.03 0.01 0.03 0.01 0.03 0.01 0.04 0.01 0.03 0 0.03 0.01 0.04 0.01 0.03 0 0.03 0.01 0.04 0.01 0.03 0 0.04 0.01 0.03 0 0.04 0.01 0.04 0 0.03 0 0.04 0.01 0.04 0 0.03 0 0.04 0 0.04 0 0.04 0.01 0.04 0 0.04 0 0 0.52 -0.05 0 -0.04 0 -0.05 0 -0.04 0 -0.04 0 -0.05 -0.01 -0.04 0 -0.04 0 -0.05 -0.01 -0.04 0 -0.04 -0.01 -0.04 0 -0.05 -0.01 -0.04 -0.01 -0.04 0 -0.04 -0.01 -0.04 -0.01 -0.04 -0.01 -0.04 -0.01 -0.04 -0.01 -0.04 -0.01 -0.04 -0.01 -0.04 -0.01 -0.03 -0.01 -0.04 -0.01 -0.04 -0.01 -0.04 -0.02 -0.03 -0.01 -0.04 -0.01 -0.04 -0.02 -0.03 -0.01 -0.04 -0.02 0 0zm0 0c-0.13,-0.06 -0.19,-0.21 -0.13,-0.35 0.06,-0.13 0.21,-0.19 0.35,-0.13l-0.22 0.48zm-0.84 -0.69l0.45 -0.27 0 0 0.01 0.02 0.01 0.01 0.02 0.02 0.01 0.02 0.01 0.01 0.01 0.02 0.02 0.02 0.01 0.01 0.01 0.02 0.02 0.01 0.01 0.02 0.02 0.02 0.02 0.01 0.01 0.02 0.02 0.01 0.02 0.02 0.02 0.01 0.02 0.02 0.02 0.01 0.02 0.02 0.02 0.01 0.02 0.02 0.03 0.01 0.02 0.01 0.02 0.02 0.03 0.01 0.02 0.02 0.03 0.01 0.02 0.01 0.03 0.02 0.03 0.01 0.03 0.01 -0.22 0.48 -0.03 -0.02 -0.04 -0.01 -0.03 -0.02 -0.04 -0.02 -0.03 -0.01 -0.03 -0.02 -0.03 -0.02 -0.03 -0.02 -0.03 -0.02 -0.03 -0.01 -0.03 -0.02 -0.03 -0.02 -0.03 -0.02 -0.03 -0.02 -0.02 -0.03 -0.03 -0.02 -0.03 -0.02 -0.02 -0.02 -0.03 -0.02 -0.02 -0.03 -0.03 -0.02 -0.02 -0.02 -0.02 -0.03 -0.02 -0.02 -0.03 -0.03 -0.02 -0.02 -0.02 -0.03 -0.02 -0.02 -0.01 -0.03 -0.02 -0.03 -0.02 -0.02 -0.02 -0.03 0 0zm0 0c-0.07,-0.13 -0.03,-0.29 0.09,-0.36 0.13,-0.08 0.29,-0.04 0.36,0.09l-0.45 0.27zm-0.25 -1.09l0.53 0 0 0 0 0.04 0 0.03 0 0.03 0 0.03 0 0.03 0 0.04 0.01 0.03 0 0.03 0 0.03 0.01 0.02 0 0.03 0 0.03 0.01 0.03 0 0.03 0.01 0.02 0 0.03 0.01 0.02 0.01 0.03 0 0.02 0.01 0.03 0.01 0.02 0 0.02 0.01 0.02 0.01 0.03 0.01 0.02 0.01 0.02 0 0.02 0.01 0.02 0.01 0.02 0.01 0.01 0.01 0.02 0.01 0.02 -0.45 0.27 -0.01 -0.03 -0.02 -0.03 -0.01 -0.03 -0.02 -0.03 -0.01 -0.03 -0.02 -0.03 -0.01 -0.03 -0.01 -0.03 -0.01 -0.03 -0.01 -0.03 -0.01 -0.03 -0.01 -0.04 -0.01 -0.03 -0.01 -0.03 -0.01 -0.03 -0.01 -0.04 -0.01 -0.03 0 -0.04 -0.01 -0.03 0 -0.04 -0.01 -0.03 0 -0.04 -0.01 -0.03 0 -0.04 -0.01 -0.04 0 -0.04 0 -0.03 0 -0.04 -0.01 -0.04 0 -0.04 0 -0.04 0 -0.04 0 0zm0 0c0,-0.14 0.12,-0.26 0.26,-0.26 0.15,0 0.27,0.12 0.27,0.26l-0.53 0zm0.53 -3.03l0 3.03 -0.53 0 0 -3.03 0 0 0.53 0zm-0.53 0c0,-0.15 0.12,-0.27 0.26,-0.27 0.15,0 0.27,0.12 0.27,0.27l-0.53 0zm0 -0.11l0.37 -0.37 0 0 0.01 0.01 0.01 0.02 0.02 0.01 0.01 0.01 0.01 0.02 0 0.01 0.01 0.02 0.01 0.01 0.01 0.01 0.01 0.02 0 0.01 0.01 0.02 0 0.01 0.01 0.02 0 0.01 0.01 0.02 0 0.01 0 0.02 0.01 0.01 0 0.02 0 0.01 0.01 0.02 0 0.01 0 0.02 0 0.02 0 0.01 0 0.02 0.01 0.01 0 0.02 0 0.01 0 0.02 0 0.02 -0.53 0 0 -0.01 0 -0.01 0 -0.01 0 -0.01 0 -0.01 0 -0.01 0 0 0 -0.01 0 -0.01 0 0 0 -0.01 0 -0.01 -0.01 0 0 0 0 -0.01 0 0 0 -0.01 0 0 0 0 0 0 0 0 0 0 0 0 0 0 0 0 0 0 0 0 0 0 0 0 0.01 0.01 0 0 0 0 0 0zm0 0c-0.1,-0.1 -0.1,-0.27 0,-0.37 0.1,-0.1 0.27,-0.1 0.37,0l-0.37 0.37zm-0.1 0l0 -0.52 0 0 0.02 0 0.01 0 0.02 0 0.01 0 0.02 0 0.02 0 0.01 0 0.02 0 0.01 0 0.02 0.01 0.01 0 0.02 0 0.01 0 0.02 0.01 0.01 0 0.02 0 0.01 0.01 0.01 0 0.02 0.01 0.01 0 0.02 0.01 0.01 0.01 0.02 0 0.01 0.01 0.02 0.01 0.01 0.01 0.01 0.01 0.02 0 0.01 0.02 0.02 0.01 0.01 0.01 0.01 0.01 -0.37 0.37 0 0 0 0.01 0.01 0 0 0 0 0 0 0 0 0 0 0 0 0 0 0 0 0 0 0 0 0 0 0 0 0 -0.01 0 0 0 0 0 -0.01 0 0 0 -0.01 0 0 -0.01 -0.01 0 0 0 -0.01 0 -0.01 0 -0.01 0 0 0 -0.01 0 -0.01 0 -0.01 0 -0.01 0 0 0zm0 0c-0.14,0 -0.26,-0.12 -0.26,-0.26 0,-0.15 0.12,-0.26 0.26,-0.26l0 0.52zm-0.39 -0.52l0.39 0 0 0.52 -0.39 0 -0.26 -0.26 0.26 -0.26zm0 0.52c-0.15,0 -0.26,-0.12 -0.26,-0.26 0,-0.15 0.11,-0.26 0.26,-0.26l0 0.52zm0.26 -0.6l0 0.34 -0.52 0 0 -0.34 0.26 -0.26 0.26 0.26zm-0.52 0c0,-0.14 0.11,-0.26 0.26,-0.26 0.14,0 0.26,0.12 0.26,0.26l-0.52 0zm11.66 0.26l-3.11 0 0 -0.52 3.11 0 0 0 0 0.52zm0 -0.52c0.14,0 0.26,0.12 0.26,0.26 0,0.15 -0.12,0.26 -0.26,0.26l0 -0.52zm1.44 0.5l-0.35 0.39 0 0 -0.02 -0.03 -0.03 -0.02 -0.03 -0.02 -0.02 -0.02 -0.03 -0.02 -0.03 -0.01 -0.03 -0.02 -0.03 -0.02 -0.02 -0.02 -0.03 -0.01 -0.03 -0.02 -0.04 -0.01 -0.03 -0.02 -0.03 -0.01 -0.03 -0.01 -0.04 -0.01 -0.03 -0.01 -0.04 -0.01 -0.03 -0.01 -0.04 -0.01 -0.03 -0.01 -0.04 -0.01 -0.04 -0.01 -0.04 0 -0.04 -0.01 -0.04 0 -0.04 -0.01 -0.04 0 -0.04 0 -0.05 -0.01 -0.04 0 -0.04 0 0 -0.52 0.05 0 0.05 0 0.06 0 0.05 0.01 0.05 0 0.05 0.01 0.05 0 0.05 0.01 0.05 0.01 0.05 0.01 0.05 0.01 0.05 0.01 0.04 0.01 0.05 0.01 0.05 0.02 0.04 0.01 0.05 0.02 0.04 0.01 0.05 0.02 0.04 0.02 0.04 0.02 0.04 0.02 0.05 0.02 0.04 0.03 0.04 0.02 0.04 0.02 0.04 0.03 0.03 0.03 0.04 0.03 0.04 0.02 0.03 0.03 0.04 0.04 0 0zm0 0c0.11,0.09 0.12,0.26 0.02,0.37 -0.1,0.1 -0.26,0.11 -0.37,0.02l0.35 -0.39zm0.57 1.24l-0.53 0 0 0 0 -0.03 0 -0.03 0 -0.03 0 -0.03 -0.01 -0.03 0 -0.03 -0.01 -0.03 0 -0.03 -0.01 -0.03 -0.01 -0.03 0 -0.03 -0.01 -0.02 -0.01 -0.03 -0.01 -0.03 -0.01 -0.03 -0.01 -0.02 -0.02 -0.03 -0.01 -0.02 -0.01 -0.03 -0.02 -0.02 -0.01 -0.03 -0.02 -0.02 -0.02 -0.03 -0.02 -0.02 -0.01 -0.03 -0.02 -0.02 -0.02 -0.03 -0.03 -0.02 -0.02 -0.02 -0.02 -0.03 -0.03 -0.02 -0.02 -0.02 0.35 -0.39 0.03 0.03 0.04 0.03 0.03 0.03 0.03 0.03 0.03 0.04 0.03 0.03 0.03 0.04 0.02 0.03 0.03 0.04 0.03 0.03 0.02 0.04 0.02 0.04 0.02 0.04 0.02 0.03 0.02 0.04 0.02 0.04 0.02 0.04 0.02 0.04 0.01 0.04 0.02 0.04 0.01 0.04 0.01 0.05 0.01 0.04 0.01 0.04 0.01 0.04 0.01 0.05 0 0.04 0.01 0.05 0 0.04 0 0.04 0.01 0.05 0 0.04 0 0zm0 0c0,0.15 -0.12,0.27 -0.27,0.27 -0.14,0 -0.26,-0.12 -0.26,-0.27l0.53 0zm-0.34 1l-0.41 -0.33 0 0 0.01 -0.02 0.02 -0.01 0.01 -0.02 0.01 -0.02 0.01 -0.02 0.02 -0.02 0.01 -0.02 0.01 -0.02 0.01 -0.01 0.01 -0.02 0.01 -0.02 0.01 -0.02 0 -0.02 0.01 -0.02 0.01 -0.02 0.01 -0.02 0 -0.02 0.01 -0.03 0.01 -0.02 0 -0.02 0.01 -0.02 0 -0.02 0 -0.02 0.01 -0.03 0 -0.02 0 -0.02 0.01 -0.02 0 -0.03 0 -0.02 0 -0.03 0 -0.02 0 -0.03 0.53 0 0 0.04 0 0.03 -0.01 0.04 0 0.03 0 0.03 -0.01 0.04 0 0.03 0 0.03 -0.01 0.04 -0.01 0.03 0 0.03 -0.01 0.04 -0.01 0.03 -0.01 0.03 -0.01 0.03 -0.01 0.03 -0.01 0.03 -0.01 0.03 -0.01 0.04 -0.01 0.03 -0.02 0.03 -0.01 0.03 -0.02 0.02 -0.01 0.03 -0.02 0.03 -0.01 0.03 -0.02 0.03 -0.02 0.03 -0.02 0.02 -0.02 0.03 -0.02 0.03 -0.02 0.03 0 0zm0 0c-0.09,0.11 -0.25,0.13 -0.36,0.04 -0.12,-0.09 -0.14,-0.25 -0.05,-0.37l0.41 0.33zm-0.86 0.6l-0.17 -0.5 0 0 0.02 -0.01 0.03 -0.01 0.02 -0.01 0.03 -0.01 0.02 -0.01 0.02 -0.01 0.03 -0.01 0.02 -0.01 0.02 -0.01 0.02 -0.01 0.02 -0.01 0.02 -0.01 0.02 -0.02 0.02 -0.01 0.02 -0.01 0.02 -0.02 0.02 -0.01 0.02 -0.01 0.02 -0.02 0.02 -0.01 0.02 -0.02 0.01 -0.01 0.02 -0.02 0.02 -0.01 0.01 -0.02 0.02 -0.01 0.02 -0.02 0.01 -0.02 0.02 -0.01 0.01 -0.02 0.02 -0.02 0.01 -0.02 0.41 0.33 -0.02 0.02 -0.02 0.03 -0.02 0.02 -0.02 0.03 -0.02 0.02 -0.03 0.02 -0.02 0.03 -0.02 0.02 -0.03 0.02 -0.02 0.02 -0.03 0.03 -0.02 0.02 -0.03 0.02 -0.02 0.02 -0.03 0.02 -0.03 0.02 -0.03 0.01 -0.02 0.02 -0.03 0.02 -0.03 0.02 -0.03 0.01 -0.03 0.02 -0.03 0.02 -0.03 0.01 -0.03 0.02 -0.03 0.01 -0.03 0.01 -0.03 0.02 -0.04 0.01 -0.03 0.01 -0.03 0.02 -0.03 0.01 0 0zm0 0c-0.14,0.04 -0.29,-0.03 -0.34,-0.16 -0.04,-0.14 0.03,-0.29 0.17,-0.34l0.17 0.5zm-1.01 0.17l0 -0.52 0 0 0.02 0 0.03 0 0.03 0 0.02 0 0.03 -0.01 0.02 0 0.03 0 0.02 0 0.03 0 0.03 -0.01 0.02 0 0.03 0 0.02 -0.01 0.03 0 0.03 0 0.02 -0.01 0.03 0 0.03 -0.01 0.02 0 0.03 -0.01 0.02 0 0.03 -0.01 0.03 -0.01 0.02 0 0.03 -0.01 0.03 -0.01 0.02 -0.01 0.03 0 0.03 -0.01 0.02 -0.01 0.03 -0.01 0.03 -0.01 0.17 0.5 -0.03 0.01 -0.04 0.01 -0.03 0.01 -0.03 0.01 -0.03 0.01 -0.03 0.01 -0.03 0.01 -0.03 0 -0.04 0.01 -0.03 0.01 -0.03 0.01 -0.03 0 -0.03 0.01 -0.03 0.01 -0.04 0 -0.03 0.01 -0.03 0 -0.03 0.01 -0.03 0 -0.03 0.01 -0.03 0 -0.04 0.01 -0.03 0 -0.03 0 -0.03 0 -0.03 0.01 -0.03 0 -0.04 0 -0.03 0 -0.03 0 -0.03 0 -0.03 0 0 0zm0 0c-0.15,0 -0.26,-0.11 -0.26,-0.26 0,-0.14 0.11,-0.26 0.26,-0.26l0 0.52zm-0.98 -0.52l0.98 0 0 0.52 -0.98 0 -0.27 -0.26 0.27 -0.26zm0 0.52c-0.15,0 -0.27,-0.11 -0.27,-0.26 0,-0.14 0.12,-0.26 0.27,-0.26l0 0.52zm-0.27 1.5l0 -1.76 0.53 0 0 1.76 0 0 -0.53 0zm0.53 0c0,0.15 -0.12,0.26 -0.26,0.26 -0.15,0 -0.27,-0.11 -0.27,-0.26l0.53 0zm0 0.04l-0.36 0.38 0 0 -0.01 -0.01 -0.01 -0.01 -0.01 -0.01 -0.01 -0.02 -0.01 -0.01 -0.01 -0.01 -0.01 -0.01 -0.01 -0.01 -0.01 -0.02 0 -0.01 -0.01 -0.01 -0.01 -0.01 0 -0.02 -0.01 -0.01 0 -0.01 -0.01 -0.02 0 -0.01 -0.01 -0.01 0 -0.02 -0.01 -0.01 0 -0.02 0 -0.01 0 -0.01 -0.01 -0.02 0 -0.01 0 -0.02 0 -0.01 0 -0.01 0 -0.02 0 -0.01 -0.01 -0.01 0 -0.02 0.53 0 0 0.01 0 0 0 0.01 0 0 0 0 0 0.01 0 0 0 0 0 0 0 0.01 0 0 0 0 0 0 0 0 0 0 0 0 0 0 0 0 0 0 0 0 0 0.01 0 0 0 -0.01 0 0 0 0 0 0 0 0 0 0 0 0 0 0 0 0 0 0 0 0zm0 0c0.11,0.1 0.11,0.27 0.01,0.37 -0.1,0.11 -0.27,0.11 -0.37,0.01l0.36 -0.38zm0.03 0.01l0 0.52 0 0 -0.01 0 -0.02 0 -0.01 0 -0.01 0 -0.02 0 -0.01 0 -0.01 0 -0.01 -0.01 -0.02 0 -0.01 0 -0.01 0 -0.02 -0.01 -0.01 0 -0.02 -0.01 -0.01 0 -0.01 0 -0.01 -0.01 -0.02 -0.01 -0.01 0 -0.01 -0.01 -0.01 0 -0.02 -0.01 -0.01 -0.01 -0.01 -0.01 -0.01 0 -0.01 -0.01 -0.01 -0.01 -0.01 -0.01 -0.01 -0.01 -0.01 0 -0.01 -0.01 -0.01 -0.01 0.36 -0.38 0 0 0 0 0 0 0 0 0 0 0 0 0 0 0.01 0 0 0 0 0 0 0 0 0 0 0.01 0 0 0 -0.01 0 0.01 0 0 0 0 0 0 0 0 0 0 0 0 0 0 0 0 0.01 0 0 0 0 0 0 0 0 0 0 0 0.01 0 0 0 0 0zm0 0c0.15,0 0.26,0.12 0.26,0.26 0,0.15 -0.11,0.26 -0.26,0.26l0 -0.52zm0.61 0.52l-0.61 0 0 -0.52 0.61 0 0.26 0.26 -0.26 0.26zm0 -0.52c0.14,0 0.26,0.12 0.26,0.26 0,0.15 -0.12,0.26 -0.26,0.26l0 -0.52zm-0.26 0.6l0 -0.34 0.52 0 0 0.34 -0.26 0.26 -0.26 -0.26zm0.52 0c0,0.14 -0.12,0.26 -0.26,0.26 -0.15,0 -0.26,-0.12 -0.26,-0.26l0.52 0zm-3.09 -0.27l2.83 0 0 0.53 -2.83 0 -0.26 -0.26 0.26 -0.27zm0 0.53c-0.14,0 -0.26,-0.12 -0.26,-0.26 0,-0.15 0.12,-0.27 0.26,-0.27l0 0.53zm0.27 -0.6l0 0.34 -0.53 0 0 -0.34 0.26 -0.26 0.27 0.26zm-0.53 0c0,-0.14 0.12,-0.26 0.26,-0.26 0.15,0 0.27,0.12 0.27,0.26l-0.53 0zm0.74 0.26l-0.48 0 0 -0.52 0.48 0 0 0 0 0.52zm0 -0.52c0.14,0 0.26,0.12 0.26,0.26 0,0.15 -0.12,0.26 -0.26,0.26l0 -0.52zm0.05 -0.01l0.37 0.38 0 0 -0.01 0.01 -0.01 0.01 -0.01 0.01 -0.01 0.01 -0.02 0 -0.01 0.01 -0.01 0.01 -0.01 0.01 -0.02 0.01 -0.01 0 -0.01 0.01 -0.02 0.01 -0.01 0 -0.01 0.01 -0.02 0 -0.01 0.01 -0.01 0 -0.02 0.01 -0.01 0 -0.02 0 -0.01 0.01 -0.01 0 -0.02 0 -0.01 0 -0.01 0.01 -0.02 0 -0.01 0 -0.02 0 -0.01 0 -0.01 0 -0.02 0 -0.01 0 0 -0.52 0 0 0.01 0 0 0 0.01 0 0 0 0.01 0 0 0 0 0 0.01 0 0 0 0 -0.01 0.01 0 0 0 0 0 0 0 0 0 0 0 0 0 0 0 0.01 0 0 0 0 0 0 0 -0.01 0 0.01 0 0 0 -0.01 0 0 0 0 0 0 0 0 0 0 0 0 0zm0 0c0.1,-0.1 0.27,-0.1 0.37,0 0.1,0.11 0.1,0.27 0,0.38l-0.37 -0.38zm0 -0.04l0.53 0 0 0 0 0.02 0 0.01 0 0.02 0 0.01 0 0.01 -0.01 0.02 0 0.01 0 0.01 0 0.02 0 0.01 -0.01 0.01 0 0.02 0 0.01 -0.01 0.01 0 0.02 -0.01 0.01 0 0.02 -0.01 0.01 0 0.01 -0.01 0.01 0 0.02 -0.01 0.01 -0.01 0.01 -0.01 0.02 0 0.01 -0.01 0.01 -0.01 0.01 -0.01 0.01 -0.01 0.01 -0.01 0.01 -0.01 0.02 -0.01 0.01 -0.37 -0.38 0 0 0 0 0 0 0 0 0 0.01 0 0 0 0 0 -0.01 0 0.01 0 0 0 0 0 0 0 0 0 0 0 0 0 -0.01 0 0 0 0 0 0 0 0 0 0 0 0 0 -0.01 0 0 0 0 0 0 0 -0.01 0 0 0 0 0 -0.01 0 0 0 -0.01 0 0zm0 0c0,-0.14 0.12,-0.26 0.27,-0.26 0.14,0 0.26,0.12 0.26,0.26l-0.53 0zm0.53 -4.11l0 4.11 -0.53 0 0 -4.11 0 0 0.53 0zm-0.53 0c0,-0.15 0.12,-0.27 0.27,-0.27 0.14,0 0.26,0.12 0.26,0.27l-0.53 0zm0 -0.04l0.37 -0.37 0 0 0.01 0.01 0.01 0.01 0.01 0.01 0.01 0.01 0.01 0.01 0.01 0.02 0 0.01 0.01 0.01 0.01 0.01 0.01 0.01 0 0.02 0.01 0.01 0.01 0.01 0 0.01 0.01 0.02 0 0.01 0.01 0.01 0 0.02 0.01 0.01 0 0.02 0 0.01 0.01 0.01 0 0.01 0 0.02 0 0.01 0 0.02 0.01 0.01 0 0.01 0 0.02 0 0.01 0 0.01 0 0.02 -0.53 0 0 -0.01 0 0 0 0 0 -0.01 0 0 0 0 0 -0.01 0 0 0 0 0 0 0 0 0 0 0 0 0 0 0 0 0 -0.01 0 0 0 0 0 0 0 0 0 0 0 0 0 0 0 0 0 0 0 0 0 0 0 0 0 0 0 0.01 0 -0.01 0 0 0 0zm0 0c-0.1,-0.1 -0.1,-0.26 0,-0.37 0.1,-0.1 0.26,-0.1 0.37,0l-0.37 0.37zm-0.02 0l0 -0.52 0 0 0.02 0 0.01 0 0.01 0 0.01 0 0.02 0 0.01 0 0.01 0 0.02 0 0.01 0.01 0.01 0 0.01 0 0.02 0.01 0.01 0 0.01 0 0.02 0.01 0.01 0 0.01 0.01 0.02 0 0.01 0.01 0.01 0 0.01 0.01 0.01 0.01 0.01 0.01 0.01 0 0.01 0.01 0.02 0.01 0.01 0.01 0.01 0 0.01 0.01 0.01 0.01 0.01 0.01 0.01 0.01 -0.37 0.37 0 0 0 0 0 0 0 0 0 0 0 0 0 0 0 0 0 0 0 0 0 0 0 0 0 0 0 0 0 0 0 0 0 0 0 0 0 0 0 0 0 0 0 0 -0.01 0 0 0 0 0 0 0 0 0 0 0 0 0 0 0 0 0 -0.01 0 0 0zm0 0c-0.14,0 -0.26,-0.12 -0.26,-0.26 0,-0.15 0.12,-0.26 0.26,-0.26l0 0.52zm-0.51 -0.52l0.51 0 0 0.52 -0.51 0 -0.26 -0.26 0.26 -0.26zm0 0.52c-0.14,0 -0.26,-0.12 -0.26,-0.26 0,-0.15 0.12,-0.26 0.26,-0.26l0 0.52zm0.27 -0.6l0 0.34 -0.53 0 0 -0.34 0.26 -0.26 0.27 0.26zm-0.53 0c0,-0.14 0.12,-0.26 0.26,-0.26 0.15,0 0.27,0.12 0.27,0.26l-0.53 0zm2.84 2.92l-0.65 0 0 -0.53 0.65 0 0 0 0 0.53zm0 -0.53c0.14,0 0.26,0.12 0.26,0.26 0,0.15 -0.12,0.27 -0.26,0.27l0 -0.53zm0.48 -0.11l0.26 0.45 0 0 -0.02 0.01 -0.02 0.02 -0.03 0.01 -0.02 0.01 -0.02 0.01 -0.02 0.01 -0.02 0.01 -0.02 0 -0.02 0.01 -0.03 0.01 -0.02 0.01 -0.02 0.01 -0.03 0 -0.02 0.01 -0.02 0.01 -0.02 0 -0.03 0.01 -0.02 0 -0.02 0.01 -0.03 0 -0.02 0.01 -0.03 0 -0.02 0 -0.02 0.01 -0.03 0 -0.02 0 -0.03 0 -0.02 0 -0.03 0 -0.02 0.01 -0.03 0 -0.02 0 0 -0.53 0.02 0 0.02 0 0.01 0 0.02 0 0.02 0 0.01 0 0.02 0 0.02 -0.01 0.01 0 0.02 0 0.01 0 0.02 0 0.02 -0.01 0.01 0 0.02 0 0.01 -0.01 0.02 0 0.01 -0.01 0.01 0 0.02 0 0.01 -0.01 0.02 0 0.01 -0.01 0.02 0 0.01 -0.01 0.01 -0.01 0.02 0 0.01 -0.01 0.01 0 0.01 -0.01 0.02 -0.01 0.01 0 0 0zm0 0c0.13,-0.07 0.29,-0.03 0.36,0.1 0.07,0.12 0.02,0.28 -0.1,0.35l-0.26 -0.45zm0.28 -0.26l0.46 0.25 0 0 -0.01 0.01 -0.01 0.02 -0.01 0.02 -0.01 0.02 -0.01 0.01 -0.02 0.02 -0.01 0.02 -0.01 0.02 -0.01 0.01 -0.02 0.02 -0.01 0.01 -0.01 0.02 -0.02 0.02 -0.01 0.01 -0.02 0.02 -0.01 0.01 -0.02 0.01 -0.01 0.02 -0.02 0.01 -0.02 0.02 -0.01 0.01 -0.02 0.01 -0.02 0.02 -0.01 0.01 -0.02 0.01 -0.02 0.01 -0.02 0.02 -0.02 0.01 -0.02 0.01 -0.01 0.01 -0.02 0.01 -0.02 0.01 -0.26 -0.45 0.01 -0.01 0.02 -0.01 0.01 -0.01 0.01 0 0.01 -0.01 0.02 -0.01 0.01 -0.01 0.01 -0.01 0.01 0 0.01 -0.01 0.01 -0.01 0.01 -0.01 0.01 -0.01 0.01 0 0.01 -0.01 0.01 -0.01 0 -0.01 0.01 -0.01 0.01 0 0.01 -0.01 0 -0.01 0.01 -0.01 0.01 -0.01 0 0 0.01 -0.01 0.01 -0.01 0 -0.01 0.01 -0.01 0 0 0.01 -0.01 0 -0.01 0.01 -0.01 0 0zm0 0c0.06,-0.13 0.22,-0.18 0.35,-0.11 0.13,0.07 0.18,0.23 0.11,0.36l-0.46 -0.25zm0.08 -0.57l0.52 0 0 0 0 0.03 0 0.04 0 0.03 0 0.03 0 0.03 0 0.03 0 0.03 -0.01 0.02 0 0.03 0 0.03 0 0.03 0 0.02 -0.01 0.03 0 0.03 -0.01 0.02 0 0.03 0 0.02 -0.01 0.03 0 0.02 -0.01 0.02 0 0.03 -0.01 0.02 -0.01 0.02 0 0.03 -0.01 0.02 -0.01 0.02 0 0.02 -0.01 0.02 -0.01 0.02 -0.01 0.02 -0.01 0.03 -0.01 0.02 -0.46 -0.25 0 -0.01 0 0 0.01 -0.01 0 -0.01 0 -0.01 0.01 -0.01 0 -0.01 0.01 -0.01 0 -0.02 0 -0.01 0.01 -0.02 0 -0.01 0 -0.02 0.01 -0.01 0 -0.02 0 -0.02 0.01 -0.02 0 -0.02 0 -0.02 0 -0.02 0.01 -0.02 0 -0.02 0 -0.02 0 -0.02 0 -0.03 0 -0.02 0.01 -0.02 0 -0.03 0 -0.03 0 -0.02 0 -0.03 0 -0.03 0 0zm0 0c0,-0.14 0.12,-0.26 0.26,-0.26 0.15,0 0.26,0.12 0.26,0.26l-0.52 0zm-0.24 -0.71l0.31 -0.42 0.01 0 0.02 0.03 0.03 0.02 0.03 0.03 0.03 0.02 0.02 0.03 0.02 0.03 0.03 0.03 0.02 0.03 0.02 0.03 0.02 0.03 0.02 0.03 0.02 0.04 0.01 0.03 0.02 0.03 0.02 0.04 0.01 0.03 0.01 0.04 0.01 0.04 0.02 0.03 0.01 0.04 0.01 0.04 0 0.04 0.01 0.04 0.01 0.04 0 0.04 0.01 0.04 0 0.04 0.01 0.05 0 0.04 0 0.04 0 0.05 0 0.04 -0.52 0 0 -0.03 0 -0.04 0 -0.03 -0.01 -0.04 0 -0.03 0 -0.03 -0.01 -0.03 0 -0.03 0 -0.03 -0.01 -0.03 -0.01 -0.02 0 -0.03 -0.01 -0.02 -0.01 -0.03 0 -0.02 -0.01 -0.02 -0.01 -0.02 -0.01 -0.02 -0.01 -0.02 -0.01 -0.02 -0.01 -0.02 -0.01 -0.02 -0.01 -0.01 -0.01 -0.02 -0.01 -0.01 -0.01 -0.02 -0.01 -0.01 -0.01 -0.02 -0.02 -0.01 -0.01 -0.01 -0.01 -0.01 -0.02 -0.01 0.01 0zm-0.01 0c-0.11,-0.09 -0.13,-0.26 -0.04,-0.37 0.09,-0.11 0.25,-0.14 0.37,-0.05l-0.33 0.42zm-0.7 -0.14l0 -0.52 0 0 0.04 0 0.04 0 0.04 0 0.04 0 0.04 0 0.03 0 0.04 0.01 0.04 0 0.03 0 0.04 0.01 0.03 0 0.04 0.01 0.03 0 0.03 0.01 0.04 0 0.03 0.01 0.03 0.01 0.03 0.01 0.03 0 0.03 0.01 0.03 0.01 0.03 0.01 0.03 0.01 0.03 0.01 0.02 0.02 0.03 0.01 0.03 0.01 0.02 0.02 0.03 0.01 0.02 0.02 0.03 0.01 0.02 0.02 -0.31 0.42 -0.01 -0.01 -0.01 0 -0.01 -0.01 -0.01 -0.01 -0.02 0 -0.01 -0.01 -0.01 -0.01 -0.02 0 -0.01 -0.01 -0.02 0 -0.02 -0.01 -0.01 -0.01 -0.02 0 -0.02 -0.01 -0.02 0 -0.03 -0.01 -0.02 0 -0.02 -0.01 -0.03 0 -0.02 -0.01 -0.03 0 -0.02 0 -0.03 -0.01 -0.03 0 -0.03 0 -0.03 0 -0.03 -0.01 -0.03 0 -0.04 0 -0.03 0 -0.04 0 -0.03 0 0 0zm0 0c-0.14,0 -0.26,-0.12 -0.26,-0.26 0,-0.15 0.12,-0.26 0.26,-0.26l0 0.52zm-0.31 0.02l-0.28 -0.44 0 -0.01 0.02 -0.01 0.02 0 0.01 -0.01 0.02 -0.01 0.02 -0.01 0.01 0 0.02 -0.01 0.01 0 0.02 -0.01 0.02 0 0.01 0 0.02 -0.01 0.02 0 0.01 0 0.02 0 0.02 -0.01 0.01 0 0.02 0 0.02 0 0.02 -0.01 0.02 0 0.02 0 0.02 0 0.02 0 0.02 0 0.02 0 0.02 0 0.02 0 0.02 0 0.02 0 0.03 0 0.02 0 0 0.52 -0.02 0 -0.02 0 -0.02 0 -0.02 0 -0.02 0 -0.01 0 -0.02 0 -0.02 0 -0.01 0 -0.02 0 -0.01 0.01 -0.02 0 -0.01 0 -0.01 0 -0.01 0 -0.01 0 -0.01 0 -0.01 0.01 -0.01 0 -0.01 0 -0.01 0 0 0 -0.01 0 -0.01 0 0 0 0 0.01 0 0 0 0 0 0 0 -0.01 0 0 0.01 0 0 0zm0 0c-0.12,0.08 -0.28,0.04 -0.36,-0.08 -0.08,-0.13 -0.04,-0.29 0.08,-0.37l0.28 0.45zm0.03 -0.02l-0.53 0 0 0 0 -0.01 0.01 -0.02 0 -0.01 0 -0.02 0 -0.01 0 -0.02 0 -0.01 0.01 -0.01 0 -0.02 0 -0.01 0.01 -0.02 0 -0.01 0 -0.02 0.01 -0.01 0.01 -0.02 0 -0.01 0.01 -0.01 0.01 -0.02 0.01 -0.01 0 -0.02 0.01 -0.01 0.01 -0.01 0.01 -0.02 0.01 -0.01 0.01 -0.01 0.01 -0.01 0.02 -0.01 0.01 -0.01 0.01 -0.01 0.01 -0.02 0.02 0 0.01 -0.01 0.28 0.44 0 0 0.01 0 0 -0.01 0 0 0 0 0 0 0.01 0 0 -0.01 0 0 0 0 0 0 0 0 0.01 -0.01 0 0 0 0 0 0 0 0 0 -0.01 0 0 0 0 0 0 0 0 0 0 0 0 0 0.01 0 0 0 0 0 0 0 0 0 0.01 0 0 0 0 0 0zm0 0c0,0.15 -0.12,0.26 -0.26,0.26 -0.15,0 -0.27,-0.11 -0.27,-0.26l0.53 0zm-0.53 2.05l0 -2.05 0.53 0 0 2.05 -0.26 0.27 -0.27 -0.27zm0.53 0c0,0.15 -0.12,0.27 -0.26,0.27 -0.15,0 -0.27,-0.12 -0.27,-0.27l0.53 0z"/>
  </g>
 </g>
</svg>
